<?xml version="1.0" encoding="utf-8"?>
<!-- Generator: Adobe Illustrator 22.1.0, SVG Export Plug-In . SVG Version: 6.00 Build 0)  -->
<svg version="1.1" id="Layer_1" xmlns="http://www.w3.org/2000/svg" xmlns:xlink="http://www.w3.org/1999/xlink" x="0px" y="0px"
	 width="99.3px" height="39.1px" viewBox="0 0 99.3 39.1" style="enable-background:new 0 0 99.3 39.1;" xml:space="preserve">
<style type="text/css">
	.st0{fill:#FFFFFF;stroke:#FFFFFF;stroke-width:0.25;stroke-miterlimit:10;}
	.st1{fill:#FFFFFF;}
</style>
<title>logo</title>
<g>
	<path class="st0" d="M50.5,30l-0.2,0.2l0,0l-0.1,0.1L50,30.4l-0.1,0l-0.2,0.2l-0.1,0.1l0,0.1l-0.1,0l-0.1,0.2l0,0l-0.1,0
		c0,0,0,0,0,0l0,0.1l0,0l0,0c0,0,0,0,0,0l0,0l0,0l0,0l0,0l0,0l0,0l0,0l0,0l0,0l0,0l0,0.1l0,0.1l0,0l-0.1,0.1L49,31.8l-0.1,0l0,0l0,0
		l-0.1,0l-0.1-0.1l0,0l0,0l0,0l0,0c0,0,0,0,0,0l0-0.1l0,0l0,0l0-0.1l0-0.1l0.1-0.1l0,0l0,0l0.2-0.3l0-0.1l0,0l0,0l0,0l0.1-0.2l0-0.1
		l0-0.1l0.1-0.1l0,0l0.3-0.6l0-0.1l0-0.1l0,0l0,0l0,0l0,0l0,0l0.1-0.1l0,0l0.1-0.1l0.3-0.4l0,0l0.1-0.1c0.1-0.2,0.2-0.4,0.4-0.6l0,0
		l0.2-0.3l0.1-0.1l0.1-0.1l0.1-0.1l0-0.1l0.1-0.1l0.1-0.1l0.2-0.3l0-0.1l0.1-0.2l0-0.1l0.2-0.2l0.1-0.1l0.2-0.4l0.2-0.4l0-0.1
		l0.1-0.1l0.2-0.3l0.1-0.2l0.1-0.2l0-0.1l0,0l0-0.1l0,0l0-0.2l0-0.2l0-0.1l0.1-0.2l0.2-0.1l0.1,0l0,0l0,0l0,0c0,0,0.1,0,0.1,0l0,0.1
		l0,0.1l0,0l0,0l0,0l0,0l0,0l0,0.1l-0.1,0.2L53.5,24l-0.1,0.1l0,0l-0.1,0.1l0,0.1l0,0l0,0.1l0,0.1c0,0,0,0,0,0l0,0l0,0l0,0l0,0l0,0
		l0,0l0,0.1l-0.1,0.1l0,0.1l0,0.1l0,0l0,0.1l0,0.1l0,0l0,0l0,0l0,0l0,0l0,0l0,0l0,0l0,0l0,0l0,0l-0.1,0.1l0,0l-0.1,0.1l0,0.1
		l-0.1,0.1l0,0L52.4,26l-0.2,0.3l-0.1,0.1L52,26.6l0,0c-0.1,0.1-0.1,0.1-0.2,0.2l0,0l0,0.1l0,0l-0.2,0.2l0,0l0,0l0,0c0,0,0,0,0,0
		l-0.1,0.1l-0.1,0.1l-0.1,0.1l0,0l0,0.1l0,0l0,0l0,0.1l0,0l0,0.1l0,0l0,0.1l-0.2,0.3l-0.2,0.2L50.3,29l0,0.1l0,0.1l0,0.1l0,0.1
		l0,0.1l-0.3,0.2l-0.1,0.1l-0.3,0.5l-0.1,0.2l-0.1,0.1l0,0.1l0,0.1l-0.1,0.1l0,0l0,0l0,0.1l0.1-0.2l0,0l0.1-0.1l0.1-0.1l0-0.1l0,0
		l0.1-0.1l0-0.1l0.2-0.1l0.1-0.1l0.2-0.2l0-0.1l0-0.1l0,0l0.1,0l0,0l0.2-0.2l0.1,0l0.1-0.1l0.1-0.1l0.1-0.1l0,0l0.1-0.1l0,0l0.1,0
		l0.1,0l0,0l0.2-0.1l0,0l0.1-0.1l0.1,0l0.1-0.1l0.1-0.1l0,0l0-0.1l0,0l0.1,0l0.1,0l0.2,0l0,0l0,0l0,0l0.3-0.1l0.1,0l0.1,0
		c0.1,0,0.2-0.1,0.3-0.1l0,0l0.2,0l0,0c0.1,0,0.2,0.1,0.3,0.1c0,0,0,0,0,0.1l0,0.1l0,0.1l-0.1,0.1l0,0.1l-0.1,0.1l-0.1,0.1l-0.1,0.1
		l0,0l0,0.1l-0.1,0l0,0c-0.1,0.1-0.3,0.3-0.5,0.4l0,0l0,0l-0.3,0.3l-0.1,0.1l0,0L52,30.5l0,0l-0.1,0.1l-0.1,0l-0.1,0.1l-0.1,0
		l-0.1,0l-0.1,0.1l0,0l0,0c-0.2,0.1-0.3,0.2-0.5,0.2c0,0,0,0,0,0l0,0l0,0l0,0l0,0l0,0l0,0l-0.1,0l-0.1,0l-0.1,0l-0.1,0l-0.1,0
		l-0.1,0l-0.1,0l-0.1,0l0,0l-0.1,0l-0.1,0l-0.1,0l0,0l0,0l0,0l-0.1,0l0,0l0,0l0,0l0,0l0,0l0.1,0l0.1,0l0,0l0,0l0,0l0,0l0,0l0.1,0
		l0.1,0l0,0l0,0l0,0c0,0,0.1,0,0.1,0l0,0l0.1,0c0,0,0,0,0,0l0.1,0l0.2,0l0,0l0,0l0,0c0,0,0.1,0,0.1,0l0,0l0.1,0l0.1-0.1l0.1,0l0.1,0
		l0.1-0.1l0,0l0,0l0.1,0l0.1-0.1l0,0l0,0l0,0l0,0l0,0l0,0l0,0l0.2-0.2l0.1,0l0.1,0l0.1-0.1l0,0c0.1-0.1,0.2-0.2,0.3-0.3
		c0,0,0.2-0.1,0.3-0.3l0-0.1l0.1-0.1l0,0l0,0l0.1-0.1c0.1-0.1,0.1-0.2,0.2-0.2l0,0l0,0l0,0l0,0l0-0.1l0,0l0,0l0-0.1l0,0l0,0l0,0l0,0
		l0-0.1l-0.1-0.1l0,0l0,0l0,0l-0.1,0c-0.1,0-0.3,0.1-0.4,0.1l0,0l-0.2,0.1l-0.1,0l0,0l0,0L52,28.9l0,0l0,0c0,0,0,0,0,0L51.8,29
		l-0.3,0.2l-0.2,0.1l-0.1,0.1l0,0.1l-0.1,0L51,29.6l-0.2,0.1l0,0c-0.1,0-0.1,0.1-0.2,0.1l-0.1,0.1L50.5,30z M51.2,27.8L51.2,27.8
		L51.2,27.8z"/>
	<path class="st0" d="M56.6,29.4l0.2-0.1l0,0l0,0l0.1,0l0,0l0,0l0,0l0.2-0.1l0,0l0.1-0.1l0,0l0.1,0l0,0l0.1,0l0,0l0,0l0.1,0l0,0
		l0.1,0c0,0,0,0,0.1,0l0,0l0.1-0.1l0,0l0,0l0,0l0.1-0.1l0,0l0,0c0,0,0,0,0,0l0.2-0.1l0,0l0.1,0l0.1,0l0.1,0l0,0l0.1,0l0,0l0.1,0l0,0
		l0.1,0c0.2,0,0.3,0,0.3,0.1l0,0l0,0l0,0l0,0l0,0l0,0l0,0l0,0l0,0l0,0.1l-0.1,0.2l0,0.2l-0.1,0.1l-0.1,0L59,29.4l-0.1,0.1l0,0.1l0,0
		l0,0l0,0.1l0,0l0,0l0,0l0,0l0,0.1l0,0l0,0c0,0,0,0,0,0l0,0l0,0l-0.2,0.3l0,0c0,0,0,0.1-0.1,0.1l0,0l0,0l-0.1,0.1l0,0l0,0l0,0l0,0
		l0,0l0,0l-0.1,0.1l-0.1,0.1l0,0.1l0,0l0,0.1l0,0.1l-0.2,0.3l0,0l0,0l-0.1,0.1l0,0c0,0,0,0,0,0l0,0.1l0,0l0,0.1l0,0l0,0l0,0.1l0,0
		l0,0l0,0l0,0.1l-0.1,0.1l0,0.1l0,0.1l0,0L57,32.3l-0.1,0.2l0,0.1l-0.1,0.1l-0.1,0.1l-0.3,0.4l0,0.1l0,0l-0.1,0l0,0l-0.1,0.1
		l-0.1,0.1l0,0l-0.1,0.2l-0.1,0.1l0,0l-0.1,0.1l0,0l-0.1,0.1L55.6,34l0,0l-0.2,0.2l0,0l0,0.1l-0.1,0.1c-0.1,0.2-0.3,0.4-0.4,0.6
		l0,0.1l-0.1,0.1l0,0.1l0,0l0,0l-0.2,0.4l-0.1,0.2l-0.1,0.2l-0.1,0.2l0,0.1l-0.1,0.2l0,0l0,0l0,0l0,0.1l0,0l0,0l0,0l0,0l0,0.2l0,0
		l0,0.1l0,0l0,0.1l0,0.1l0,0.1l0,0l0,0l0,0.2l0,0.2l0,0.1l0,0.1l0,0.1l0,0l0,0l0,0.2l-0.1,0.1l0,0l0,0l0-0.1l0,0l0,0l0,0l0,0l0,0
		l0-0.2l0-0.1l0,0l0-0.2l0-0.1l0-0.1l0,0l0-0.1l0,0l0,0c0-0.1,0-0.1,0-0.2c0-0.1,0-0.1,0-0.2l0,0l0,0c0,0,0,0,0,0l0-0.1l0,0l0-0.1
		l0,0c0-0.2,0.1-0.4,0.2-0.5c0-0.1,0-0.1,0.1-0.2l0.1-0.3l0-0.1l0.1-0.1l0.1-0.1l0-0.1c0.1-0.2,0.2-0.4,0.3-0.6l0-0.1l0,0l0.1-0.2
		l0,0l0.1-0.1l0.1-0.1l0-0.1l0,0c0,0,0,0,0,0l0,0l0-0.1l0.2-0.3l0,0l0,0l0,0l0.1-0.1l0,0l0,0l0,0l0.1-0.1l0.1-0.1l0-0.1l0,0l0.1-0.1
		l0-0.1l0.1-0.1l0,0l0.5-0.6l0-0.1l0.1-0.1l0,0l0.1-0.2l0,0l0,0l0,0L57,32L57,32l0.1-0.1l0.2-0.3l0,0l0-0.1l0.1-0.2l0-0.1l0.2-0.2
		l0.1-0.1l0.2-0.4l0.2-0.4l0.1-0.1l0.1-0.1l0.2-0.3l0.1-0.2l0.1-0.1l0,0l0.1-0.1l0,0l0-0.1l0,0l0,0l0,0l0,0l0-0.1l0-0.1l0-0.1l0,0
		l0,0l-0.2,0l-0.2,0c-0.2,0.1-0.4,0.2-0.6,0.2l-0.6,0.3l-0.1,0l0,0l0,0l0,0L57,29.4l0,0l-0.1,0l-0.1,0l0,0l0,0l0,0l0,0l0,0l0,0l0,0
		l0,0l0,0l0,0l-0.2,0.1l0,0l-0.2,0.1l-0.1,0l-0.1,0.1l0,0L55.7,30l0,0l0,0l0,0l0,0l0,0l0,0l-0.1,0l-0.1,0l-0.1,0l0,0l-0.1,0l-0.2,0
		L55,30.4l-0.1,0l0,0l0,0l0,0l0,0l0,0l0,0c-0.1,0-0.1,0-0.2,0.1l-0.1,0.1l-0.1,0l-0.1,0l-0.1,0l0,0l0,0l-0.1-0.1c0,0,0,0,0,0
		c0-0.1,0-0.3,0.1-0.5c0-0.1,0.1-0.2,0.1-0.3c0-0.1,0.1-0.1,0.2-0.2l0-0.1l0-0.1l0.1-0.1l0-0.1l0.1-0.1l0.2-0.2l0.1-0.2l0.1-0.1l0,0
		l0,0l0,0l0,0l0,0l0,0l0,0l0,0l0.1-0.1l0.1,0l0,0l0,0c0,0,0,0,0,0c0,0,0,0,0,0c0,0,0,0,0,0l0,0l0,0.1l0,0.1l-0.1,0.1l-0.1,0.1
		l-0.1,0.1l0,0l-0.1,0.1l0,0l-0.5,0.5l0,0c-0.1,0.1-0.1,0.2-0.2,0.3l-0.1,0.1l0,0.1l0,0.1l0,0l0,0.1l0,0l0,0l0,0c0,0.1,0,0.2,0,0.2
		c0,0.1,0.2,0.2,0.5,0.1l0.1,0l0,0l0.1-0.1l0,0l0,0l0,0l0,0l0.3-0.2l0.1,0l0.1,0l0,0l0.1-0.1l0.1,0l0.1,0l0,0l0,0l0.5-0.3l0,0l0,0
		l0.1,0l0,0L56.6,29.4L56.6,29.4z"/>
	<path class="st0" d="M78.2,23.8l0.2,0c0.1,0,0.2,0,0.3,0.1l0.1,0l0.1,0l0,0c0.2,0.1,0.4,0.2,0.6,0.2l0.1,0l0,0l0.1,0l0,0l0.1,0l0,0
		l0,0.1l0.1,0l0.1,0.1c0,0,0,0,0,0c0,0,0,0,0,0l0.1,0.1l0,0.1l-0.1,0L80,24.5l-0.1-0.1L79,24.1l-0.1,0l-0.1,0c0,0-0.1,0-0.1,0l0,0
		l0,0c0,0,0,0,0,0l0,0l-0.1,0l0,0l0,0l-0.2,0c-0.2,0-0.4-0.1-0.6-0.1l-0.1,0l-0.1,0l0,0l0,0l-0.1-0.1c-0.2,0-0.3,0-0.5-0.1l0,0l0,0
		l0,0l-0.6-0.1l-0.2,0l0,0l-0.3,0l-0.1,0l0,0l-0.1,0l-0.2,0l0,0l0,0l-0.2,0c-0.1,0-0.1,0-0.2,0l0,0c0,0-0.1,0-0.1,0l-0.2,0l0,0
		l-0.1,0l0,0c-0.1,0-0.1,0-0.2,0l0,0l0,0l0,0l0,0l0,0l0,0l0,0l-0.1,0l-0.1,0l-0.1,0l-0.1,0l-0.1,0l0,0l0,0l-0.1,0l-0.1,0l-0.1,0
		l-0.1,0l-0.1,0l-0.2,0l-0.1,0l-0.1,0l-0.7,0l-0.2,0l-0.1,0l-0.1,0l-0.2,0l-0.1,0l-0.1,0l-0.1,0l-0.1,0c-0.1,0-0.1,0-0.2,0l0,0
		l-0.1,0l-0.1,0l0,0l-0.1,0l0,0l-0.1,0l0,0l-0.2,0c0,0-0.1,0-0.1,0l-0.1,0l-0.2,0l-0.1,0l-0.3,0l-0.1,0l-0.2,0l0,0l-0.1,0
		c0,0-0.1,0-0.1,0l0,0l-0.1,0l-0.1,0l-0.2,0l-0.1,0l0,0l0,0l-0.3,0l0,0l-0.1,0l-0.2,0.1l-0.2,0l0,0l-0.2,0l0,0l-0.2,0l0,0l0,0
		c0,0,0,0,0,0l0,0l-0.1,0l0,0l0,0l-0.1,0l-0.1,0l0,0l0,0l0,0l-0.1,0l0,0l-0.1,0l-0.1,0l-0.2,0l-0.1,0.1l-0.1,0l0,0l0,0l0,0l-0.1,0
		l-0.1,0l-0.4,0.1c-0.2,0.1-0.4,0.1-0.5,0.2l0,0l0,0l0,0l0,0l-0.1,0l-0.2,0l-0.1,0l-0.3,0.1c-0.2,0.1-0.3,0.2-0.5,0.2
		c-0.2,0.1-0.3,0.2-0.5,0.3l0,0c-0.1,0-0.2,0.2-0.3,0.2c0,0-0.1,0-0.1,0l0,0.1l0,0.1l0,0l-0.1,0l0,0l-0.1,0l0,0l0,0l-0.3,0.2
		l-0.1-0.1l0,0l0-0.1l0,0c0,0,0,0,0-0.1l0,0l0-0.1l0,0l0.1-0.1l0,0l0,0l0.1-0.1l0.1-0.1l0.1-0.1l0,0l0,0l0.1,0l0.1,0l0,0l0,0
		l0.1-0.1l0,0l0.1,0l0,0l0.1,0l0,0l0.1,0l0.1,0l0.1,0l0-0.1l0.1-0.1l0.1,0l0.2,0c0,0,0.1,0,0.1,0l0.1,0l0.1,0l0.2-0.1l0.1-0.1l0.1,0
		l0.2-0.1l0.1-0.1l0.1,0l0,0l0.1,0l0.1-0.1l0.1,0l0,0l0,0l0.1,0l0,0l0,0l0,0l0,0l0.1,0l0,0l0,0l0.1,0l0,0l0.1,0l0.1,0l0,0l0.1,0l0,0
		l0.1,0l0.1,0l0.2,0c0.3-0.1,0.5-0.1,0.7-0.1l0.1,0l0.1,0l0.5-0.1l0.1,0l0,0l0.5-0.1l0.1,0l0.1,0l0,0l0.1,0l0.2,0l0.2-0.1l0.1,0
		l0.2,0l0.2,0l0.1,0l0.1,0l0.4,0l0,0c0.1,0,0.1,0,0.2,0l0.1,0l0,0l0.1,0l0.1,0c0,0,0.1,0,0.1,0l0,0l0.1,0l0,0l0.1,0l0,0l0.6,0l0,0
		l0.1,0l0.1,0l0.1,0c0,0,0,0,0.1,0l0,0l0.7,0l0,0l0.1,0l0.1,0l0.1,0l0.1,0l0,0l0.1,0l0.1,0l0,0l0.3,0l0,0l0.1,0l0.1,0l0.1,0l0.1,0
		l0.4,0l0,0l0,0l0,0l0,0l0,0l0,0l0.4,0l0.1,0l0.1,0l0.1,0l0.1,0l0.1,0l0.1,0l0.1,0l0.1,0l0.1,0l0.2,0.1c0.1,0,0.1,0,0.2,0l0,0l0,0
		l0,0l0.4,0l0.5,0.1l0.1,0l0.1,0l0,0l0.1,0l0.1,0l0,0l0.1,0l0.1,0l0,0l0,0l0.3,0l0.1,0l0.1,0l0.1,0L78.2,23.8L78.2,23.8z M66.4,30.9
		L66.4,30.9L66.3,31l0,0l0,0.1l0,0l-0.1,0.2L66,31.5l-0.1,0.1l0,0l-0.1,0.2l0,0l0,0c0,0.1-0.1,0.1-0.1,0.2l0,0l-0.2,0.4l0,0l0,0
		l-0.1,0.1l0,0l-0.2,0.5l0,0l0,0c0,0.1,0,0.1-0.1,0.2c0,0,0,0,0,0l0,0.1l0,0l0,0l-0.1,0l0,0l0.1-0.1l0,0l0.1-0.3l0.1-0.3l0,0l0,0
		l0,0l0-0.1c0,0,0.1,0,0.1,0c0.2-0.4,0.3-0.8,0.5-1.1l0.1-0.3l0,0c0-0.1,0.1-0.2,0.1-0.2l0.1-0.2l0.1-0.1l0-0.1l0.2-0.3l0-0.1
		l0.1-0.2l0.1-0.1l0.2-0.1l0.2-0.3l0,0l0,0l0.1-0.1l0,0l0.1-0.2l0-0.1l0.2-0.3l0.1-0.1l0.2-0.3l0.1-0.2l0-0.1l0,0l0.1-0.1l0,0l0,0
		l0.1-0.1l0-0.1l0-0.1l0.1-0.1l0.1,0l0-0.1l0,0l0,0l0,0l0,0l0,0l0,0l0,0l0,0l0.1-0.1l0,0l0,0l0.1-0.1l0.1-0.1l0.3-0.4l0.1-0.3
		l0.1-0.2l0.1-0.2l0.1-0.1l0,0l0-0.1l0.2-0.2l0.2-0.1l0,0.1l0,0l0,0l0.1,0l0,0l0,0l0.1,0l0,0l0,0l0.1,0l0,0l0,0.1l0,0.1l-0.1,0.1
		l0,0.1l0,0l0,0l0,0l-0.1,0l-0.1,0l-0.1,0l0,0l-0.1,0.2l-0.1,0.1l0,0l0,0l-0.3,0.4l-0.1,0l-0.2,0.2l0,0.1l0,0.2L69,27.1L69,27.3l0,0
		l0,0l0,0l0,0l-0.1,0l0,0l0,0.1l-0.1,0.2l-0.1,0.1l-0.1,0l0,0.1l0,0.1l0,0l-0.2,0.2l0,0l0,0.1l0,0.1l0,0l0,0l0,0l0,0l-0.3,0.4l0,0.1
		l0,0.1L67.7,29l-0.1,0.1l-0.1,0.1l0,0l-0.1,0.3l-0.1,0.1l-0.1,0l-0.2,0.3l0,0l0,0l0,0.1l0,0l0,0.1l0,0l0,0l0,0.1l-0.1,0.1l-0.1,0.1
		l-0.1,0l-0.2,0.3l0,0l0,0.1l0,0L66.4,30.9z"/>
	<path class="st0" d="M70.4,30.3L70.4,30.3L70.4,30.3l0.2-0.1l0,0l0,0l0,0l0,0l0.1,0l0,0l0.1,0l0.2-0.2l0,0l0.1-0.1l0.2-0.1l0.2-0.1
		l0,0l0,0l0.2-0.1l0,0l0.3-0.2l0,0l0.2-0.1l0,0l0,0l0.1-0.1l0,0l0,0l0.2-0.1l0.1-0.1l0.1,0l0.1-0.1l0.1-0.1l0.1-0.1l0.2-0.1l0.1,0
		c0.1,0,0.2-0.1,0.3-0.1l0.1,0l0.2-0.1l0.2-0.1l0,0l0.1,0l0.1,0l0.1,0l0.1,0c0.2,0,0.3-0.1,0.4-0.1l0.1,0l0,0c0,0,0.1,0,0.1,0.1
		c0,0,0,0,0,0l0.1,0.1l0,0.2l-0.1,0.2l-0.1,0l-0.1,0l-0.1-0.1l0-0.1l0,0l0,0l0,0l0,0l0-0.1l0-0.1l0,0l-0.1,0l-0.1,0.1l0,0l-0.1,0
		l-0.1,0l-0.1,0l-0.4,0.1c-0.2,0.1-0.3,0.1-0.4,0.2l-0.1,0l0,0l-0.4,0.2l-0.1,0.1L72.4,29l-0.2,0.1l0,0l-0.1,0.1L72,29.3L72,29.3
		l-0.3,0.2l-0.4,0.3l-0.1,0.1l-0.1,0l-0.1,0.1L71,30.2l0,0l-0.1,0l-0.1,0.1l0,0l-0.1,0.1l-0.1,0.1l0,0l0,0l-0.1,0.1l0,0.1l0,0l0,0
		l-0.1,0.1L70.1,31l0,0.1l0,0l0,0.1l0,0.1l0,0l0,0l-0.1,0.1l-0.1,0.1l-0.1,0.1l-0.1,0l0-0.1l0,0c0,0,0-0.1,0-0.1l0,0l0,0l0-0.1l0,0
		l0,0l0-0.1l0-0.1l0.1-0.1l0,0l0,0l0,0l0,0l0,0l0.1-0.1l0,0l0,0l0.1-0.2l0.1-0.1l0,0l0-0.1l0.1-0.1l0.1-0.1l0-0.1l0.1-0.1l0,0
		l0.1-0.2l0,0l0.2-0.2l0.1-0.2l0-0.1l0-0.1l0,0l0,0l0.1-0.1l0,0l0.1-0.1l0.1,0l0,0l0.1-0.1l0-0.1l0,0l0,0l0,0l0,0l0,0l0,0l0,0l0,0
		c0,0-0.1,0-0.1,0l0,0l0,0l0,0l0,0l0,0l0,0l0,0l0,0l0,0l0,0l0,0l0,0l0,0l0,0l0,0l0-0.1l0,0l0,0l0,0l0,0l0,0l0,0l0,0l0,0l0,0l0,0l0,0
		l0.1,0l0,0l0,0l0,0l0,0l0,0l0,0l0,0l0,0l0,0c0.1,0,0.1,0.1,0.1,0.1l0,0l0,0c0,0.1-0.1,0.2-0.2,0.4l0,0l-0.1,0.1l-0.1,0L71.2,29l0,0
		l0,0.1l0,0c0,0.1-0.1,0.1-0.1,0.2c0,0,0,0,0,0l-0.1,0.1l0,0.1l0,0.1l-0.1,0.1l-0.1,0.1l0,0l-0.1,0.1L70.5,30l-0.1,0.1L70.4,30.3
		L70.4,30.3L70.4,30.3z"/>
	<path class="st0" d="M76.3,30.7L76.3,30.7l-0.2,0.1l-0.1,0l0,0l0,0l0,0l-0.1,0l-0.1,0l0,0l0,0l-0.1,0l-0.1,0.1l-0.1,0l-0.1,0.1
		l-0.1,0l-0.1,0l-0.1,0.1l-0.1,0l-0.1,0l-0.1,0l-0.1,0.1l-0.1,0l-0.2,0l-0.1,0l-0.2,0c-0.1,0-0.2-0.1-0.2-0.1l0,0l0-0.1
		c0-0.1,0-0.2,0-0.2l0,0l0.1-0.2l0.1-0.2l0-0.1l0.1-0.1l0.1-0.1l0,0l0.1,0c0,0,0-0.1,0.1-0.1l0.1-0.1l0-0.1l0-0.1l0,0l0-0.1l0.1-0.1
		l0.1,0l0-0.1l0.1-0.1l0.2-0.3l0-0.1l0.1-0.1l0.1-0.1l0-0.1l0,0l0-0.1l0,0l0-0.1l0.1,0l0,0l0,0l0,0l0.1-0.1l0.1,0
		c0,0,0.1-0.1,0.1-0.1c0,0,0,0,0,0l0,0l0,0l0.1,0l0.1,0l0.1,0l0,0l0,0.1l-0.1,0.1l-0.1,0.1l0,0l0,0l0,0l-0.1,0L75.5,29l0,0l0,0
		l-0.1,0.1c0,0,0,0,0,0l0,0.1l-0.1,0.1l-0.1,0.1l-0.1,0.1l0,0l-0.1,0l0,0.1l0,0l-0.1,0.1L74.7,30l-0.1,0.1l-0.1,0.1l-0.1,0.2
		c-0.1,0.1-0.1,0.1-0.1,0.1l-0.1,0.2l0,0.1l-0.1,0.2L74.2,31l0,0.1l0,0.1c0,0.1,0,0.1,0,0.1l0,0l0.1,0l0,0l0.1,0l0.1,0l0.1,0l0,0
		l0,0l0.2,0l0,0c0,0,0.1,0,0.2,0l0,0l0.1-0.1l0.1,0l0.2,0l0.1-0.1l0.1,0l0.3-0.2l0,0l0.1,0l0.2-0.1l0,0l0,0l0.1,0L76.3,30.7
		l-0.1-0.1l0.1,0l0.1,0l0.1-0.1l0.1,0l0.1-0.1l0,0l0.1-0.1l0,0l0,0l0.2-0.1l0,0l0.1,0l0,0l0,0c0,0,0,0,0,0l0,0l0.1,0l0,0l0.1,0
		l0.1,0l0,0c0.1,0,0.2-0.1,0.3-0.2l0,0l0,0l0,0l0,0.1l0,0l0,0l-0.1,0l0,0l0,0l0,0l0,0l-0.1,0.1l0,0L77.4,30l-0.1,0.1l-0.1,0.1
		l-0.1,0l-0.1,0c-0.2,0.1-0.3,0.2-0.5,0.3l0,0l0,0l-0.1,0L76.3,30.7L76.3,30.7L76.3,30.7z M77.1,26.5L77,26.7l0,0l0,0l0,0l-0.1,0
		l-0.1,0l-0.1,0l-0.1,0.1l0,0l0,0l0,0.1l-0.1,0l-0.1,0.1l-0.1,0l0,0l-0.1,0.1l0,0l-0.1,0.1l0-0.1l0,0c0,0,0,0,0-0.1l0.1-0.2l0-0.1
		l0.1-0.1l0-0.1l0.1-0.1l0.1-0.1l0,0l0.1-0.1l0,0l0.1,0l0.1-0.1l0,0l0,0l0,0l0,0l0,0l0.1-0.1l0.1,0l0.1,0.1l0.1,0l0,0.1L77.1,26.5
		L77.1,26.5z"/>
	<path class="st0" d="M79.7,29.6L79.7,29.6c0,0.1,0,0.1,0,0.1l-0.1,0.1l-0.1,0.1L79.5,30l-0.1,0.1l0,0l0,0l-0.1,0.1l0,0
		c-0.2,0.1-0.3,0.3-0.5,0.4l0,0l0,0l-0.1,0.1l0,0l0,0l0,0c0,0,0,0,0,0l0,0l0,0l-0.1,0.1l0,0l0,0l-0.1,0l0,0l-0.1,0l0,0L78,31l0,0
		l-0.1,0l0,0c-0.1,0.1-0.3,0.1-0.4,0.1l0,0l0,0l0,0l0,0l-0.1,0l-0.1,0l-0.2,0l-0.2,0l0,0c0,0,0,0,0,0c-0.1,0-0.1,0-0.1,0
		c0,0-0.2-0.1-0.2-0.2l0-0.1l0,0l0-0.1l0.1-0.2l0.1-0.2l0-0.1l0.1-0.1l0.1,0l0,0l0.2-0.1l0.1-0.1l0,0l0,0l0.2-0.2l0.1,0l0,0l0,0
		l0.1,0l0,0l0,0l0.2-0.2l0,0l0,0l0.1-0.1l0.1-0.1l0.1-0.1l0.1,0l0.1-0.1l0.1,0l0.1,0c0.1-0.1,0.2-0.1,0.3-0.2l-0.1,0
		c-0.1,0-0.1,0-0.2,0l0,0l0,0l0,0l-0.1,0c-0.1,0-0.2,0-0.3,0l0,0l-0.2,0l-0.1,0l-0.1,0l0,0l0-0.1l0.1-0.1l0.1,0l0.1,0l0.1,0l0.1,0
		l0.1,0c0.1,0,0.3,0,0.4,0l0.1,0l0.1,0l0.2,0l0,0l0.2,0c0,0,0.1,0,0.1,0l0.1-0.1l0.1,0l0,0l0,0l0.1,0l0.1,0c0.1,0,0.1,0,0.2,0l0.1,0
		l0,0c0,0,0.1,0,0.1,0.1l0.3,0l0,0l0.1,0l0.1,0l0.1,0l0.1,0l0.1,0l0.2,0l0.1,0l0.1,0l0,0c0,0,0.1,0,0.1,0c0,0,0.1,0,0.2,0l0,0l0,0
		l0,0l0,0l0.1,0l0.1,0l0.1,0l0.1,0l0,0l0.1,0l0.1,0l0,0l0,0l0.1,0l0,0c0.1,0,0.2,0,0.3,0.1l0,0l0,0l0,0c0.1,0,0.1,0.1,0.2,0.1l0,0
		l0,0l0,0l0,0.1l0,0.1l0,0l-0.1,0l0,0.1l-0.1,0.1l0,0.1l0,0c0,0,0,0,0,0l0,0.1l-0.1,0l0-0.1l0,0l0,0c0,0,0-0.1,0.1-0.1l0,0l0.1-0.2
		c0,0,0,0,0,0l0,0l-0.1,0l-0.1-0.1l-0.1,0c-0.2,0-0.4,0-0.6,0l-0.1,0l-0.1,0c-0.1,0-0.1,0-0.2,0c-0.4,0-0.7,0.1-0.9,0.1l0,0l-0.1,0
		l0,0l-0.1,0c-0.1,0-0.3,0-0.4,0.1l-0.1,0l-0.1,0l-0.2,0l0,0c0.1,0,0.2,0.1,0.2,0.1l0,0l0,0l0,0l0,0l0.1,0l0.1,0.1l0,0.1l0,0.1
		l0,0.2C79.7,29.5,79.7,29.6,79.7,29.6z M79.5,29.6L79.5,29.6l0-0.1l0-0.1l0,0l0-0.1l-0.1-0.1l-0.1,0l-0.1,0l-0.1,0l-0.1,0l-0.1,0
		l-0.1,0c0,0,0,0,0,0c-0.1,0.1-0.2,0.2-0.4,0.3l-0.1,0.1l-0.1,0.1l-0.3,0.2l-0.1,0.1l-0.1,0l-0.2,0.1l0,0l0,0l-0.1,0.1l-0.1,0.1
		L77.5,30l0,0l-0.1,0.1l0,0l-0.1,0.1l-0.1,0.1l0,0.1c0,0,0,0,0,0c-0.1,0.1-0.1,0.2-0.1,0.2l0,0l0,0l0,0l0,0.1l0,0l0,0
		c0,0.1,0,0.1,0.1,0.2l0,0l0.1,0c0,0,0,0,0.1,0c0.3,0,0.4,0,0.7-0.1c0.1,0,0.3-0.1,0.4-0.1l0,0l0,0l0.1-0.1l0.1-0.1l0.2-0.1l0,0l0,0
		l0.3-0.2l0,0l0,0c0.1-0.1,0.1-0.1,0.2-0.2l0,0l0,0l0.1,0l0.1-0.1l0,0l0,0l0,0l0,0l0,0l0,0C79.4,29.7,79.5,29.7,79.5,29.6z
		 M79.8,28.6c-0.1,0-0.2,0-0.3,0L79.8,28.6z"/>
	<path class="st0" d="M89,33.6L89,33.6L89,33.6l-0.1-0.2l0-0.1l0-0.2l0-0.1l0-0.1l0-0.1l0,0l0,0l0,0l0,0l0,0l0,0l0-0.1l0,0l0-0.1
		l0-0.1l0-0.2l0-0.1l0-0.1l0-0.1l0,0l0,0l0,0l0-0.1l0-0.1l0,0c0-0.1,0-0.1,0-0.2l0,0l0,0l0-0.1c0,0,0-0.1,0-0.1l0,0l0,0l0-0.1l0-0.1
		l0-0.1l0,0c0-0.2-0.1-0.5-0.1-0.7l0,0l0-0.1l0,0l0,0l0,0l0-0.1l0-0.3l0-0.1l0-0.1l0-0.2l0-0.1l0-0.3l0-0.1c0-0.1,0-0.2,0-0.4l0-0.2
		c0,0,0-0.1,0-0.1l0-0.1l0,0l0-0.2l0-0.1l0-0.1l0,0l0,0l0,0l0-0.3l0,0l0,0l0,0l0-0.1L88,27.5l0,0l-0.1,0l-0.2,0.2l0,0.1l-0.1,0l0,0
		l0,0l-0.1,0l0,0L87.3,28l-0.2,0.2l-0.1,0l-0.1,0l0,0c0,0-0.1,0.1-0.1,0.1l0,0l0,0.1l-0.1,0.1l-0.1,0.1l0,0l-0.1,0.1l0,0l0,0
		l-0.1,0.1L86,29c-0.2,0.1-0.3,0.3-0.5,0.4l-0.3,0.3l-0.1,0l-0.1,0.1L85,29.8l-0.4,0.3l0,0l-0.1,0.1l0,0l-0.1,0.1l-0.1,0.1l-0.1,0.1
		l-0.1,0.1l0,0.1l0,0l-0.1,0.1l-0.1,0.1c-0.1,0.1-0.2,0.2-0.3,0.2l-0.2,0.3l-0.1,0l-0.1,0.1l0,0l-0.4,0.3l0,0l-0.1,0l-0.1,0.1l0,0
		l0,0c0,0,0,0,0,0l0,0l-0.1,0l0,0l0,0l-0.1,0.1l0,0l0,0l0,0l0,0l-0.1,0.1l0,0l-0.1,0l0,0L82,32.5l-0.1,0.1l0,0.1l-0.1,0.1l0,0l0,0
		l0,0l-0.1,0l-0.1,0l0,0l0,0l-0.1,0.1l-0.1,0l-0.1,0.1l0,0c0,0,0,0,0,0l-0.1,0.1l0,0l0,0l0,0l0,0l0,0l0,0l0,0l0,0l0,0l0,0l0,0l0,0
		l-0.1,0l-0.1,0.1l-0.1,0.1l-0.2,0.1l-0.1,0.1l-0.1,0l0,0l0,0l0,0l0,0l0,0l-0.1,0l0-0.1l0-0.1l0,0c-0.3,0-0.3-0.3,0.1-0.5l0.1,0
		l0.1,0l0.1,0l0,0l0.1,0l0,0l0,0l0,0l0,0l0,0l0.1,0l0.2,0l0.2-0.1l0.1,0l0.1-0.1l0,0l0.1-0.1l0-0.1l0,0l0.1,0l0.1-0.1l0,0l0.1,0
		l0.2-0.2l0.1,0l0.1-0.1l0.1-0.1l0.1-0.1l0.1,0l0.2-0.1l0.1-0.1l0,0l0,0l0.2-0.2l0.2-0.1l0.3-0.2l0.1-0.1l0.2-0.2l0.1-0.1l0.2-0.1
		l0.1-0.1l0.1-0.1l0.1-0.1l0.1-0.1l0.2-0.1l0,0l0.6-0.5l0,0l0.2-0.2l0,0c0,0,0,0,0,0l0,0l0.1,0c0,0,0,0,0,0l0-0.1l0,0l0.1,0l0.3-0.2
		l0,0l0.1,0l0-0.1l0-0.1l0,0l0.1,0l0,0l0,0l0.1,0l0,0l0.1,0l0,0l0,0l0,0l0.1-0.1l0.1-0.1l0,0l0-0.1l0,0l0.1,0l0.1,0l0,0l0.1,0l0,0
		l0,0l0.1,0l0,0l0.1-0.1l0.1-0.1l0.1-0.1l0.1-0.1l0.1,0l0.1,0l0,0l0.2-0.2l0,0l0,0l0,0l0,0l0,0l0,0l0,0l0.1-0.1l0,0l0.2-0.1l0,0
		c0,0,0,0,0-0.1l0,0l0-0.1c0,0,0,0,0-0.1l0-0.1l0,0l0-0.1l0-0.1l0-0.1l0-0.1l0,0l0-0.1l0,0l0-0.1l0,0l0-0.1c0-0.1,0-0.1,0-0.2l0,0
		l0,0l0,0l0,0l0-0.1l0,0l0,0l0,0l0,0l0,0l0,0l0-0.1l0-0.1l0,0l0,0c0-0.1,0-0.1,0-0.2l0-0.1l0-0.1l0-0.2l0-0.1l0-0.1l0-0.1l0,0l0,0
		l0,0l0-0.1l0,0l0,0l0-0.1l0-0.1l0-0.1l0,0l0-0.1l0,0l0,0l0,0l0,0l0,0l0,0l0-0.1l0,0l0,0l0,0l0,0l0,0l0,0l0,0l0-0.1l0-0.1l0,0l0,0
		l0-0.1l0.1-0.1l0-0.1l0,0.1l0,0l0,0l0.1,0.1l0,0.1l0,0l0,0l0,0.1l0,0.1l0,0.1l0,0.1l0,0.1l0,0.1l0,0l0,0.1l0,0.1l0,0l0,0.1l0,0l0,0
		l0,0l0,0.1l0,0.1l0,0.2l0,0.1l0,0c0,0,0,0,0,0l0,0l0,0c0,0,0,0,0,0l0,0l0,0l0,0.1l0,0.1l0,0.1l0,0l0,0l0,0l0,0l0,0l0,0.1l0,0l0,0
		l0,0.1l0,0.1l0,0l0,0l0,0l0,0.1l0,0.1l0,0.1l0,0.2l0,0l0,0l0,0.1l0,0.1l0,0l0,0l0,0.1l0.1,0l0.4-0.3l0-0.1l0.1-0.1l0.2-0.1l0.2-0.2
		l0.1-0.1l0.1-0.1l0.2-0.1l0.1-0.1l0.1-0.1l0.2-0.1l0.4-0.3l0,0l0,0l0,0l0,0l0,0l0,0l0-0.1l0-0.1l0,0l0,0l0,0l0,0l0,0l0,0l0,0l0,0
		l0,0l0,0l0.1,0l0,0l0,0l0,0l0.1,0l0.1,0l0.1-0.1l0,0l0.1,0l0.1-0.1l0.2-0.1l0.1,0l0.2-0.1l0.1,0l0.1,0l0.2-0.1l0.2-0.1l0.1-0.1l0,0
		l0.1,0l0.1,0l0.2-0.1l0,0l0.2,0l0.2-0.1l0,0l0.1,0l0,0l0.1-0.1l0.1,0l0,0l0.1,0c0.1,0,0.2-0.1,0.3-0.1l0,0l0,0l0.1,0l0,0l0,0l0,0
		l0.1,0l0.1,0c0.3-0.1,0.5-0.1,0.8-0.2l0.1,0l0,0l0.1,0c0.2,0,0.5-0.1,0.7-0.1l0,0l0,0l0.1,0c0.2,0,0.5,0,0.7,0.1l0,0l0.2,0l0,0.1
		l0,0l0.1,0l0,0l0,0.1l0,0.1l0,0.2c0,0,0,0,0,0c0,0,0,0,0,0.1l0,0.1l0,0l0-0.1l0-0.1l0-0.2c0,0,0,0,0-0.1c-0.2-0.3-0.7-0.2-1-0.2
		l-0.3,0l-0.1,0l0,0l0,0c-0.1,0-0.3,0.1-0.4,0.1l0,0l0,0l-0.1,0l-0.1,0l-0.1,0l-0.1,0l0,0l-0.1,0l0,0l0,0l-0.1,0l0,0l0,0
		c-0.1,0-0.2,0.1-0.2,0.1l-0.1,0l-0.1,0l-0.1,0l-0.1,0l-0.1,0L93.7,24l-0.2,0.1l-0.2,0.1l0,0l0,0l-0.1,0l0,0l0,0L93,24.3l0,0l-0.1,0
		l0,0l0,0l-0.1,0l-0.3,0.2l-0.1,0.1l-0.1,0l-0.1,0L92,24.7c-0.2,0.1-0.5,0.3-0.7,0.4l0,0l-0.1,0.1l-0.1,0.1l-0.1,0L91,25.4l-0.1,0.1
		l-0.1,0.1l0,0l0,0l0,0l0,0l0,0l0,0l-0.1,0.1l-0.1,0l0,0l0,0l-0.1,0.1l-0.1,0L90,26L90,26.1l0,0l0,0.1l-0.1,0.1l-0.1,0.1l-0.2,0.1
		l-0.1,0.1l-0.1,0.1l-0.1,0.1l0,0l-0.1,0.1c0,0-0.1,0-0.1,0l0,0l-0.1,0.1l-0.1,0.1l0,0.1l0,0l-0.1,0.1l-0.1,0.1l0,0l-0.1,0l0,0
		l0,0.1l0,0.1l0,0l0,0.1l0,0l0,0l0,0l0,0l0,0.2l0,0.1l0,0l0,0l0,0l0,0l0,0l0,0.1l0,0l0,0.1l0,0.1l0,0.3l0,0l0,0l0,0
		c0,0.1,0,0.1,0,0.1l0.1,0.2l0,0l0,0.1l0,0.1l0,0.3l0,0.2l0,0.1c0,0,0,0.1,0,0.1l0,0l0,0.1l0,0.1l0,0.1l0,0.1l0,0l0,0l0,0.1l0,0.1
		l0,0l0,0l0,0.3l0,0l0,0l0,0.1l0,0l0,0l0,0.1l0,0c0,0,0,0.1,0,0.1l0,0l0,0c0,0,0,0.1,0,0.1l0.1,0.1l0,0.1l0,0.1l0,0.1l0,0.1l0,0.1
		l0,0.1l0,0.2l0,0c0,0.1,0,0.1,0,0.2l0,0l0,0c0,0,0,0.1,0,0.1l0,0.1l0.1,0.2l0,0.1l0,0.3l0,0l0,0.1l0,0l0,0.1l0,0l0.1,0.2l0,0l0,0.1
		l0.1,0.1l0.1,0.2l0.1,0.1l0.1,0.1l0.1,0.1l0,0.1l0,0.1l0,0l0,0.1c0,0,0.1,0.1,0.1,0.1l0.1,0l0,0l0,0l0.1,0l0,0l0.1,0l0,0l0.1-0.1
		l0,0l0,0c0.2-0.1,0.3-0.2,0.5-0.2l0,0l0.1,0l0,0.1l0,0c0,0,0,0,0,0l0,0l0,0l-0.1,0.1l0,0l-0.1,0l0,0l0,0l-0.1,0l0,0l0,0l-0.2,0.1
		L90,34.7l-0.1,0l0,0l0,0c0,0-0.2,0-0.2-0.1l0,0l0,0l0,0l0,0l0,0l0,0l0,0l0,0l0,0l0,0l0,0l0,0l0,0l0,0l0-0.1l-0.1-0.1l0-0.1l0,0
		l0-0.1l0-0.1l0,0l0,0l0,0l0,0l0,0l0,0l0,0l0,0l0,0l0,0l0,0l0,0l0,0L89,33.8L89,33.6z"/>
	<path class="st0" d="M94.8,33.5c0-0.1,0-0.1-0.1-0.2l-0.1-0.1l0-0.1l0,0l0-0.2c-0.1-0.2-0.1-0.2-0.1-0.3l0,0l0-0.1l0-0.1l-0.1-0.2
		c0-0.1,0-0.1,0-0.1l-0.1-0.3l0-0.1l0,0l0-0.1l0,0l0,0l0-0.1l0,0l-0.2-0.3l0-0.1l0,0l-0.2-0.3l0,0l0-0.1l0,0l0,0l-0.1-0.2l0-0.1
		l0-0.1l0-0.1l0,0l0-0.1l0-0.1L93.3,30l0,0l-0.1-0.1l-0.1-0.1L93,29.5l0-0.1l0-0.1l0,0l-0.1-0.2c-0.1,0-0.1,0.1-0.2,0.1l0,0l0,0
		l-0.1,0.1l0,0l0,0l-0.1,0l0,0l0,0l0,0l0,0l-0.4,0.2c0,0-0.1,0-0.1,0l0,0l0,0l0,0l-0.2,0.1l0,0L91.3,30l-0.1,0l-0.2,0.1l0,0
		l-0.3,0.2c0,0,0,0-0.1,0l0,0l-0.1,0l-0.1,0.1l-0.3,0.2l0,0c0,0,0,0,0,0l0,0l-0.1,0c-0.2,0.1-0.3,0.2-0.4,0.3l-0.1,0l-0.1,0.1l0,0
		l-0.2,0.2l-0.1,0.1l0,0L89,31.8c0,0,0,0,0,0l0,0l-0.1,0l0-0.1l0,0l0,0c0,0,0,0,0,0l0-0.1c0,0,0,0,0,0l0.1-0.2l0-0.1l0,0l0.1,0l0,0
		l0.1,0l0,0l0.1-0.1l0.1-0.1l0.1-0.1l0,0l0-0.1l0,0l0,0l0.1-0.1l0,0l0.1,0l0.1,0l0.1,0l0.1,0l0,0l0.1,0l0,0l0,0c0,0,0.1,0,0.1-0.1
		l0,0l0,0l0,0l0.2-0.1l0-0.1l0,0l0.1,0l0.1-0.1l0,0l0,0l0.2-0.2l0.1,0L91,30l0.1-0.1l0.1-0.1l0.1,0l0.2,0l0,0l0,0l0.1-0.1l0,0
		l0.5-0.3l0,0l0.1-0.1l0.2-0.1l0.1-0.1l0,0l-0.1,0L92.5,29l0-0.1c0,0-0.1,0-0.1,0c-0.1-0.1-0.1-0.2-0.2-0.2l-0.1,0l-0.1,0l0,0l0,0
		l0,0l0-0.1l-0.1-0.1l-0.1-0.1l0-0.1l0.1,0l0,0c0,0,0-0.1,0.1-0.1l0,0l0,0l0,0l0.1,0l0,0l0,0l0,0l0.1,0l0,0l0,0l0,0l0,0l0,0l0,0l0,0
		l0,0l0,0l0,0l0,0l0,0l0,0l0,0l0,0l0,0l0,0l0,0l0,0l0,0l0,0l0.1,0.1l0,0l0,0l0,0l0,0l0,0l0.1,0l0,0l0.1,0l0.1,0l0.3-0.1l0,0l0.1,0
		c0,0,0,0,0,0l0.2-0.1l0.1,0l0.5-0.2l0,0l0.1,0l0,0l0.1,0l0,0l0,0l0,0c0.1,0,0.2-0.1,0.3-0.1l0,0l0.1-0.1l0,0l0-0.1l0,0l0.1,0l0.1,0
		l0.2,0c0.1,0,0.2,0,0.2,0l0,0l0,0l0,0c0,0,0,0,0,0.1c0,0,0,0,0,0.1l0,0l0,0l0,0l0,0l0,0l0,0l0,0.1l0,0l0,0l0,0l0,0l0,0l0,0l0,0
		l0,0.1l-0.1,0l-0.1,0l0,0l-0.1,0l0,0l0,0l0,0l0,0l0,0l0-0.1l0-0.1l0,0l0,0l-0.1,0l0,0l-0.5,0.1l0,0l0,0l-0.1,0l-0.3,0.1l0,0l0,0
		l0,0l0,0l-0.1,0l0,0l0,0l0,0l0,0l-0.1,0l-0.2,0.1l0,0l-0.1,0l-0.1,0.1L93.2,29L93.1,29l-0.1,0l-0.1,0l-0.1,0l0,0
		c0.1,0.1,0.1,0.2,0.2,0.2l0,0l0,0l0,0l0,0l0.1,0l0,0l0,0.1l0,0.1l0,0.1c0.1,0.1,0.1,0.2,0.2,0.3l0,0l0,0l0,0.1l0,0l0,0l0,0.1l0,0
		l0,0.1l0,0l0,0.1c0,0.1,0.1,0.1,0.1,0.2l0,0l0.1,0.1l0,0.1l0,0L94,31l0,0.1l0,0.1l0,0.1l0,0.1c0,0.1,0.1,0.2,0.1,0.3l0,0l0,0.1
		l0,0.1l0,0.1l0.1,0.1l0,0l0.1,0.1l0,0.1l0.1,0.2l0,0l0.1,0.3l0,0l0,0l0,0c0.1,0.2,0.1,0.4,0.2,0.7l0,0.1l0,0.1l0,0l0,0l0,0.1l0,0.1
		l0,0.1l0,0.1l0,0.1l0.1,0.3l0,0l0,0l0,0l0,0c0,0,0,0,0,0l0,0l0.1,0l0,0l0,0.1l0,0.1l0,0.2c0,0,0,0,0,0c0,0,0,0,0,0l0,0.1l0,0l0-0.1
		l0-0.1l0-0.1l0-0.1l0,0L95,34.4l0-0.1l0-0.1l0,0l0-0.1l0-0.1l0-0.1l0-0.2l0,0l0,0L94.8,33.5L94.8,33.5L94.8,33.5L94.8,33.5z"/>
</g>
<g>
	<path class="st1" d="M7.8,9.1c-1.4,0-2.5,0.5-3.3,1.4c-0.8,0.9-1.2,2.2-1.2,3.9c0,1.7,0.4,3,1.2,3.9s1.9,1.4,3.4,1.4
		c0.9,0,1.9-0.2,3.1-0.5v1.3c-0.9,0.3-2,0.5-3.3,0.5c-1.9,0-3.4-0.6-4.4-1.7s-1.5-2.8-1.5-4.9c0-1.3,0.2-2.5,0.7-3.5
		s1.2-1.8,2.1-2.3c0.9-0.5,2-0.8,3.3-0.8c1.3,0,2.5,0.2,3.5,0.7l-0.6,1.3C9.7,9.3,8.7,9.1,7.8,9.1z"/>
	<path class="st1" d="M19.1,20.8l-0.3-1.4h-0.1c-0.5,0.6-1,1-1.4,1.2c-0.5,0.2-1.1,0.3-1.8,0.3c-1,0-1.7-0.2-2.2-0.7
		c-0.5-0.5-0.8-1.2-0.8-2.1c0-1.9,1.6-3,4.7-3.1l1.6-0.1v-0.6c0-0.8-0.2-1.3-0.5-1.7c-0.3-0.4-0.8-0.5-1.6-0.5
		c-0.8,0-1.7,0.2-2.7,0.7l-0.4-1.1c0.5-0.3,1-0.5,1.6-0.6c0.6-0.1,1.1-0.2,1.7-0.2c1.1,0,2,0.3,2.6,0.8c0.6,0.5,0.8,1.3,0.8,2.5v6.6
		H19.1z M15.9,19.8c0.9,0,1.6-0.2,2.1-0.7c0.5-0.5,0.8-1.2,0.8-2.1v-0.9l-1.5,0.1c-1.2,0-2,0.2-2.5,0.5S14,17.5,14,18.2
		c0,0.5,0.2,0.9,0.5,1.2C14.8,19.6,15.3,19.8,15.9,19.8z"/>
	<path class="st1" d="M29.3,18.2c0,0.9-0.3,1.6-1,2.1c-0.7,0.5-1.6,0.7-2.8,0.7c-1.3,0-2.3-0.2-3-0.6V19c0.5,0.2,1,0.4,1.5,0.6
		c0.5,0.1,1,0.2,1.5,0.2c0.8,0,1.3-0.1,1.8-0.4c0.4-0.2,0.6-0.6,0.6-1.1c0-0.4-0.2-0.7-0.5-1s-1-0.6-1.9-0.9
		c-0.9-0.3-1.5-0.6-1.9-0.9c-0.4-0.2-0.7-0.5-0.8-0.8s-0.3-0.7-0.3-1.1c0-0.8,0.3-1.4,1-1.9C24,11.2,24.9,11,26,11
		c1,0,2.1,0.2,3,0.6l-0.5,1.2c-1-0.4-1.8-0.6-2.6-0.6c-0.7,0-1.2,0.1-1.6,0.3c-0.4,0.2-0.5,0.5-0.5,0.9c0,0.3,0.1,0.5,0.2,0.7
		s0.3,0.4,0.6,0.5s0.9,0.4,1.7,0.7c1.1,0.4,1.9,0.8,2.3,1.3C29.1,17,29.3,17.5,29.3,18.2z"/>
	<path class="st1" d="M31.3,8.6c0-0.3,0.1-0.6,0.2-0.7c0.2-0.2,0.4-0.2,0.6-0.2c0.2,0,0.4,0.1,0.6,0.2C33,8,33.1,8.2,33.1,8.6
		c0,0.3-0.1,0.6-0.3,0.7c-0.2,0.2-0.4,0.2-0.6,0.2c-0.2,0-0.5-0.1-0.6-0.2S31.3,8.9,31.3,8.6z M32.9,20.8h-1.5v-9.6h1.5V20.8z"/>
	<path class="st1" d="M42.4,20.8v-6.2c0-0.8-0.2-1.4-0.5-1.8c-0.4-0.4-0.9-0.6-1.7-0.6c-1,0-1.7,0.3-2.2,0.8
		c-0.5,0.5-0.7,1.4-0.7,2.7v5.1h-1.5v-9.6H37l0.2,1.3h0.1c0.3-0.5,0.7-0.8,1.3-1.1s1.1-0.4,1.8-0.4c1.2,0,2,0.3,2.6,0.8
		c0.6,0.6,0.9,1.5,0.9,2.7v6.3H42.4z"/>
	<path class="st1" d="M55,16c0,1.6-0.4,2.8-1.2,3.7C53,20.5,52,21,50.6,21c-0.9,0-1.6-0.2-2.3-0.6c-0.7-0.4-1.2-1-1.5-1.7
		c-0.4-0.8-0.5-1.6-0.5-2.7c0-1.6,0.4-2.8,1.2-3.7s1.9-1.3,3.3-1.3c1.3,0,2.4,0.4,3.2,1.3C54.6,13.2,55,14.4,55,16z M47.7,16
		c0,1.2,0.2,2.2,0.7,2.8c0.5,0.6,1.2,1,2.2,1c1,0,1.7-0.3,2.2-1s0.7-1.6,0.7-2.8c0-1.2-0.2-2.2-0.7-2.8s-1.2-1-2.2-1
		c-1,0-1.7,0.3-2.2,0.9S47.7,14.7,47.7,16z"/>
	<path class="st1" d="M63.1,9.1c-1.4,0-2.5,0.5-3.3,1.4c-0.8,0.9-1.2,2.2-1.2,3.9c0,1.7,0.4,3,1.2,3.9c0.8,0.9,1.9,1.4,3.4,1.4
		c0.9,0,1.9-0.2,3.1-0.5v1.3c-0.9,0.3-2,0.5-3.3,0.5c-1.9,0-3.4-0.6-4.4-1.7S57,16.5,57,14.4c0-1.3,0.2-2.5,0.7-3.5
		c0.5-1,1.2-1.8,2.1-2.3c0.9-0.5,2-0.8,3.3-0.8c1.3,0,2.5,0.2,3.5,0.7L66,9.8C65.1,9.3,64.1,9.1,63.1,9.1z"/>
	<path class="st1" d="M76.9,16c0,1.6-0.4,2.8-1.2,3.7c-0.8,0.9-1.9,1.3-3.3,1.3c-0.9,0-1.6-0.2-2.3-0.6c-0.7-0.4-1.2-1-1.5-1.7
		S68,17,68,16c0-1.6,0.4-2.8,1.2-3.7c0.8-0.9,1.9-1.3,3.3-1.3c1.3,0,2.4,0.4,3.2,1.3C76.5,13.2,76.9,14.4,76.9,16z M69.6,16
		c0,1.2,0.2,2.2,0.7,2.8c0.5,0.6,1.2,1,2.2,1c1,0,1.7-0.3,2.2-1c0.5-0.6,0.7-1.6,0.7-2.8c0-1.2-0.2-2.2-0.7-2.8
		c-0.5-0.6-1.2-1-2.2-1c-1,0-1.7,0.3-2.2,0.9C69.8,13.8,69.6,14.7,69.6,16z"/>
	<path class="st1" d="M85.8,19.5L85.8,19.5c-0.8,1-1.8,1.5-3.1,1.5c-1.3,0-2.2-0.4-2.9-1.3c-0.7-0.9-1.1-2.1-1.1-3.7
		s0.4-2.8,1.1-3.7c0.7-0.9,1.7-1.3,2.9-1.3c1.3,0,2.3,0.5,3,1.4h0.1l-0.1-0.7l0-0.7V7.1h1.5v13.7H86L85.8,19.5z M82.9,19.8
		c1,0,1.7-0.3,2.2-0.8c0.4-0.5,0.7-1.4,0.7-2.6V16c0-1.4-0.2-2.3-0.7-2.9c-0.5-0.6-1.2-0.9-2.2-0.9c-0.9,0-1.5,0.3-2,1
		c-0.5,0.7-0.7,1.6-0.7,2.8c0,1.2,0.2,2.2,0.7,2.8C81.4,19.4,82,19.8,82.9,19.8z"/>
	<path class="st1" d="M94.2,21c-1.4,0-2.5-0.4-3.4-1.3c-0.8-0.9-1.2-2.1-1.2-3.6c0-1.6,0.4-2.8,1.1-3.7c0.8-0.9,1.8-1.4,3.1-1.4
		c1.2,0,2.2,0.4,2.9,1.2s1.1,1.8,1.1,3.1v0.9h-6.6c0,1.1,0.3,2,0.9,2.6c0.5,0.6,1.3,0.9,2.3,0.9c1,0,2.1-0.2,3.1-0.7v1.3
		c-0.5,0.2-1,0.4-1.5,0.5C95.4,20.9,94.9,21,94.2,21z M93.8,12.2c-0.8,0-1.4,0.3-1.9,0.8c-0.5,0.5-0.7,1.2-0.8,2.1h5
		c0-0.9-0.2-1.6-0.6-2.1C95.2,12.5,94.6,12.2,93.8,12.2z"/>
</g>
</svg>
