<?xml version="1.0" encoding="utf-8"?>
<!-- Generator: Adobe Illustrator 22.1.0, SVG Export Plug-In . SVG Version: 6.00 Build 0)  -->
<svg version="1.1" id="Layer_1" xmlns="http://www.w3.org/2000/svg" xmlns:xlink="http://www.w3.org/1999/xlink" x="0px" y="0px"
	 width="99.3px" height="39.1px" viewBox="0 0 99.3 39.1" style="enable-background:new 0 0 99.3 39.1;" xml:space="preserve">
<style type="text/css">
	.st0{fill:#FFFFFF;stroke:#FFFFFF;stroke-width:0.25;stroke-miterlimit:10;}
</style>
<title>logo</title>
<g>
	<path class="st0" d="M45.7,4.7l0.6,0.1c0.3,0,0.6,0.1,0.9,0.2l0.2,0l0.2,0l0.1,0.1c0.6,0.2,1.2,0.4,1.7,0.7h0.2l0.1,0l0.2,0l0.1,0
		l0.2,0H50l0.1,0.2L50.2,6l0.2,0.2c0,0,0.1,0,0.1,0c0,0,0.1,0.1,0.1,0.1L51,6.6l0,0.2l-0.2,0l-0.2-0.2l-0.3-0.2l-2.5-0.9h-0.2
		l-0.2-0.1c-0.1,0-0.2-0.1-0.3-0.1h0l0,0c-0.1,0-0.1,0-0.1,0h0l-0.2,0h-0.1l-0.1-0.1l-0.5-0.1C45.6,5,45,4.8,44.3,4.7l-0.2,0H44
		l-0.1,0l-0.1,0l-0.4-0.2c-0.5-0.1-0.9-0.1-1.4-0.2l0,0.1l-0.1-0.1l0,0l-1.7-0.2l-0.6,0.1h-0.1l-0.9-0.1h-0.2v0h-0.3l-0.4,0h-0.1
		l-0.1,0l-0.5,0c-0.2,0-0.4,0-0.5,0h-0.1c-0.1,0-0.2,0-0.3,0h-0.6l0,0.1l-0.3,0l-0.1,0c-0.2,0-0.4,0-0.5,0l0,0L34.6,4l-0.1,0
		l-0.1,0.1l-0.1,0.1l0,0h-0.1l-0.2,0h-0.3l-0.2,0l-0.3-0.1l-0.2,0.1h0l0,0.1l-0.3,0.1l-0.4,0l-0.3,0L32,4.2l-0.3-0.1h-0.7l-0.2,0
		l-0.2,0h-1.9l-0.4,0h-0.2L28,4.1h-0.5l-0.2-0.1l-0.2,0l-0.2,0.1l-0.3-0.1c-0.2,0-0.3,0-0.5,0l-0.1,0l-0.3,0l-0.2,0l-0.1,0h-0.3
		l-0.1,0.1L25,4.2h-0.1l-0.7,0.1c-0.1,0-0.2,0-0.3,0l-0.3,0l-0.4,0.1h-0.4l-0.9,0.1l-0.3,0.1l-0.5,0.1l-0.1,0h-0.2
		c-0.1,0-0.2,0-0.3,0l-0.1,0.1l-0.3,0l-0.3,0.1l-0.5,0L19,5l0,0l-0.1,0.1l-0.7,0.1h0l-0.3,0.1l-0.6,0.2l-0.4,0h-0.1l-0.5,0.1l0,0
		l-0.5,0.1l-0.1,0v0c0,0-0.1,0-0.1,0l-0.1,0l-0.2,0v0h-0.1L15,5.7l-0.2,0.1l-0.1,0h-0.1l-0.1,0l-0.4,0.1l-0.1,0L14,6L13.8,6
		l-0.5,0.1L13,6.3l-0.2,0.1l-0.1,0l-0.1,0h0l-0.2,0l-0.2-0.1l-1.2,0.3c-0.5,0.2-1,0.4-1.5,0.5l0,0.1L9.3,7.2H9.2l-0.1,0l-0.3,0
		L8.3,7.4l-0.3,0L7.2,7.6C6.6,7.8,6.2,8.1,5.7,8.3C5.3,8.6,4.8,8.8,4.3,9.1h0C4,9.2,3.7,9.6,3.4,9.7c-0.1,0.1-0.2,0-0.2,0L3.1,9.8
		l0,0.3L3,10.2l-0.2,0l-0.1,0.1l-0.3,0.1l-0.1,0l-0.1,0.1l-0.8,0.7l-0.4-0.2v-0.1l-0.1-0.2l0-0.1c0,0,0-0.1,0-0.2v-0.1l0-0.3h0
		l0.3-0.3H1.4V9.6l0.2-0.2l0.2-0.3L2,9h0.1l0-0.1l0.2-0.1l0.2-0.1l0-0.1l0.1,0.1l0.3-0.2l0,0l0.2,0l0.1-0.1l0.2,0.1l0.1,0.1l0.2-0.1
		l0.2,0l0.2-0.1L4,8.1l0.2-0.2l0.3-0.1l0.6,0c0.1-0.1,0.2-0.1,0.3-0.1l0.3-0.1L6,7.4l0.5-0.2l0.3-0.2H7l0.6-0.2l0.2-0.2l0.2,0l0,0
		l0.2-0.1l0.2-0.2l0.3-0.1h0.1V6.3H9l0.1-0.1V6.2h0v0l0.3,0l0.1,0h0.1l0.2,0l0.1,0H10l0.2,0h0.1l0.3-0.1l0.1,0L10.8,6l0.3,0l0.4,0
		c0.8-0.2,1.4-0.3,1.9-0.4l0.4-0.1l0.2,0l1.3-0.3l0.4,0l0.1,0l1.3-0.3l0.4,0l0.3-0.1v0l0.2,0l0.6-0.1l0.7-0.2l0.3-0.1l0.4-0.1l0.5,0
		l0.3-0.1l0.3-0.1l1.1,0h0.1c0.2,0,0.3,0,0.5-0.1L23.2,4l0-0.1l0.2,0L23.5,4c0.1,0,0.2,0,0.3,0l0.1,0l0.4-0.1l0.1,0h0.2l0.1,0
		l1.6-0.1l0.1,0l0.4-0.1l0.2,0l0.4,0.1c0.1,0,0.1,0,0.2,0h0.1l1.9-0.1l0.1,0h0.2l0.3-0.1h0.2l0.2-0.1h0.1l0.3,0.1h0.3l0.1,0H32l0,0
		l0.3,0l0.4,0l0.3,0l0.4,0.1h1.1l0.1,0l0-0.1l0,0v0h0.1v0l1.1,0.1L36,3.6l0.3-0.1l0.4,0.1l0.4-0.1h0.2l0.3,0.1l0.3,0.1l0.2,0h0.2
		l0.5,0.2c0.2,0,0.4,0,0.6,0.1l0.1,0l0.1,0l0.1,0.1l1.1,0.1l1.3,0.2l0.2,0l0.2,0.1l0.1,0l0.4,0.1H43l0,0l0.2,0l0.4,0h0.1l0.1,0.1
		l0.7,0.1l0.2,0l0.2,0.1l0.3,0.1L45.7,4.7L45.7,4.7z M12.2,24.2L12.2,24.2L12,24.5L12,24.7l-0.1,0.2L11.8,25l-0.3,0.6l-0.3,0.5
		L11,26.5l-0.1,0.1L10.6,27l0,0h0c-0.1,0.2-0.2,0.4-0.3,0.5l0,0.1l-0.5,1l0,0l-0.1,0L9.7,29l0,0.1L9,30.6l-0.1,0.1l-0.1,0.1
		c-0.1,0.2-0.1,0.3-0.2,0.5c0,0-0.1,0.1-0.1,0.1l0,0.2l0,0.1l0,0l-0.2-0.1l0-0.1l0.2-0.2h0l0.3-1l0.4-0.9h0l0-0.1v0l0.1-0.3
		c0.1-0.1,0.2-0.1,0.2-0.1c0.4-1,0.9-2.1,1.4-3.1l0.4-0.8l0.1-0.1c0.1-0.2,0.2-0.5,0.4-0.7l0.2-0.5l0.2-0.3l0-0.3l0.6-0.9l0.1-0.3
		l0.3-0.5l0.2-0.4l0.5-0.3l0.6-0.8l-0.1,0l0.1-0.1l0.2-0.2l0.1-0.1l0.3-0.4l0.1-0.3l0.5-0.8l0.2-0.3l0.6-0.9l0.4-0.5l0.1-0.2
		l0.1-0.1l0.3-0.4v0l0,0l0.2-0.3l0.1-0.4l0.1-0.2l0.2-0.2l0.2-0.1l0.1-0.2l0.1-0.1v-0.1l0-0.1l0.1-0.1l0-0.1l0.1-0.1l-0.1,0h0.1
		l0.2-0.2l0,0.1v0l0.2-0.2l0.2-0.3l0.9-1.1l0.3-0.8l0.2-0.6l0.2-0.5l0.3-0.3l0.1-0.1L21,9.9l0.4-0.6L22.1,9l0.1,0.2l0.1,0.1l0.1,0
		l0.2-0.1h0.1v0l0.2,0l0,0l0.1,0h0.2l0.1,0.1l0.1,0.2l-0.1,0.2l-0.2,0.3l-0.1,0.2l0,0l0,0.1l-0.1,0h-0.2l-0.2,0.1l-0.2,0l-0.1,0.1
		l-0.3,0.5l-0.3,0.3l-0.1,0.1h0l-0.7,1.1l-0.2,0.1l-0.5,0.7l0,0.2l0,0.4l-0.2,0.2l-0.2,0.4l-0.1,0l-0.1,0.1h-0.1l-0.1,0L19,14.5
		l-0.1,0.1l-0.1,0.2l-0.3,0.4l-0.2,0.4l-0.2,0.1l-0.1,0.2L18,16l-0.1,0.1l-0.5,0.6l0,0.1L17.4,17l-0.1,0.2l-0.1,0.1l-0.1,0.1
		L17,17.4h0l-0.8,1l-0.1,0.2l-0.1,0.2L15.9,19l-0.2,0.3l-0.2,0.2l-0.1,0l-0.3,0.7L15,20.5l-0.2-0.1l-0.5,0.8h0l-0.1,0.1l0,0.2l0,0
		l-0.1,0.2L14,21.8l-0.1,0.1L13.8,22l-0.2,0.2l-0.2,0.2l-0.2,0.1l-0.5,0.8v0l-0.1,0.2l0,0L12.2,24.2z"/>
	<path class="st0" d="M23.5,22.8l0,0.1l0.2-0.2l0.4-0.3l0.1-0.1l0,0h0.1v0l0.2-0.1l-0.1-0.1h0.2l0.5-0.4h0.1l0.4-0.4l0.5-0.3
		l0.4-0.3l0,0h0l0.5-0.4l0,0l0.7-0.5v0l0.5-0.3l0.1-0.1l0.1,0l0.2-0.2l0.1-0.1h0l0.5-0.3l0.2-0.2l0.2-0.1l0.4-0.2l0.3-0.3l0.3-0.2
		l0.5-0.2l0.2-0.1c0.2-0.1,0.5-0.3,0.8-0.4l0.2-0.1l0.5-0.2l0.5-0.2l0.1,0l0.2-0.1l0.3-0.1l0.2-0.1l0.3,0c0.4-0.1,0.8-0.2,1.2-0.2
		l0.2,0l0.1,0.1c0.1,0.1,0.2,0.1,0.3,0.2c0,0,0.1,0,0.1,0.1l0.2,0.2l0,0.7l-0.3,0.6l-0.3,0.1H35L34.9,18v-0.3l-0.1,0.1v-0.1l0.1,0
		l0-0.1l0-0.2l-0.1-0.3L34.6,17L34.3,17l-0.4,0.2l-0.1,0l-0.2,0l-0.3,0.1l-0.2,0l-1,0.2c-0.5,0.2-0.9,0.4-1,0.5L31,18.1l-0.1,0.1
		l-1,0.5l-0.4,0.2l-0.2,0.2l-0.5,0.3l-0.1,0.1l-0.2,0.2l-0.4,0.3L27.9,20l-0.7,0.5l-1.1,0.9L26,21.6l-0.2,0.1l-0.3,0.4l-0.3,0.3
		l-0.1,0l-0.2,0.1l-0.2,0.2l0,0.1L24.5,23l-0.2,0.3l-0.1,0.1L24,23.4l-0.3,0.3l-0.1,0.2l-0.1,0.1L23.5,24l-0.3,0.2l-0.4,0.4
		l-0.1,0.2L22.6,25l-0.1,0.2l-0.1,0.2l0,0.1l-0.1,0.1l-0.2,0.2L21.8,26l-0.3,0.2l-0.2,0L21.2,26v0c-0.1-0.1-0.1-0.2-0.1-0.3v-0.1
		l0.1-0.1l0.1-0.3l-0.1,0.1l0-0.1l0.1-0.2l0.1-0.3l0.2-0.3l0,0v-0.1l0.1-0.1l0.1-0.1v0l0.2-0.2h0l0.1,0l0.3-0.4l0.2-0.3l0.1,0
		l0.1-0.3l0.2-0.4l0.2-0.2l0.1-0.2l0.3-0.4l0.1,0l0.3-0.5v-0.1l0.4-0.5l0.3-0.4l0.1-0.2l0.1-0.2l0-0.1l0.1-0.1l0.2-0.3v-0.1l0.2-0.3
		l0.2,0l0.1,0l0.2-0.2l0.1-0.2l0-0.1v-0.1l-0.1,0l0.1-0.1l0,0.1l0.1-0.1l0,0l-0.1,0.1c-0.1,0.1-0.2,0-0.2-0.1l0.1-0.1v0l0-0.1
		l0.1-0.1l0,0l-0.1-0.1l0,0L25.2,18V18l0.1-0.1l0.1,0h-0.1l0.1,0h-0.1l0-0.1l0.1-0.2l0.1,0.1l0.1-0.1v-0.1l0-0.1l0,0l0.1,0v-0.1l0,0
		h0.1l0.1-0.1H26l0.2,0l0.1,0l0.1-0.1v0l0.1-0.1l0.1,0h0.1l0.1,0.1l0,0l-0.1,0c0.2,0.1,0.3,0.2,0.3,0.3l0,0l0,0.1
		c0,0.3-0.3,0.7-0.5,1l0,0l-0.3,0.4l-0.2,0l-0.2,0.3l-0.1,0.1l-0.1,0.2h0c-0.1,0.2-0.3,0.4-0.4,0.5c0,0,0,0,0,0L25,20.2l-0.1,0.2
		l-0.1,0.2L24.6,21l-0.2,0.2l-0.1,0.1l-0.2,0.3L24,22l-0.2,0.4l-0.2,0.3L23.5,22.8L23.5,22.8z"/>
	<path class="st0" d="M40.2,23.9l-0.3,0.2l-0.4,0.2l-0.2,0.1l-0.1,0.1l0,0.1l-0.1,0l-0.3,0.1l-0.2,0.1l0,0l-0.1,0.1l-0.2,0.1
		L37.9,25l-0.2,0.1l-0.4,0.3l-0.2,0.1l-0.2,0.1l-0.3,0.2l-0.2,0.1l-0.2,0L36,25.9l-0.4,0.2l-0.3,0.1l-0.4,0l-0.3,0.1l-0.5-0.1
		c-0.3-0.1-0.5-0.2-0.6-0.4l-0.1-0.1l0-0.2c0-0.2,0-0.4,0.1-0.7v-0.1l0.2-0.5l0.2-0.5l0.1-0.2l0.2-0.3l0.2-0.2l0.1-0.1l0.2-0.1
		c0-0.1,0.1-0.2,0.2-0.3l0.2-0.3L35,22l0.1-0.2l0.1-0.1l0.1-0.3l0.2-0.2l0.2-0.1l0.1-0.2l0.2-0.2l0.5-0.8l0.1-0.4l0.3-0.4l0.2-0.2
		l0.1-0.2l0.1-0.1l0.1-0.3v-0.1l0.1-0.2l0.2-0.1l0.1,0h0v-0.1l0.2-0.2l0.2-0.1c0.1-0.1,0.2-0.2,0.4-0.2c0,0,0,0,0.1,0.1l0.1-0.1l0,0
		l0.2,0l0.2,0l0.2,0.1v0.1l0,0.3l-0.2,0.3l-0.3,0.3l-0.1,0.1l-0.1,0.1h0l-0.2,0l-0.4,0.4l-0.1,0.1l0,0.1l-0.4,0.4
		c0,0.1-0.1,0.1-0.1,0.1l0,0.2l-0.2,0.2l-0.2,0.3l-0.2,0.2l-0.1,0.1l-0.2,0.1l-0.1,0.2l0,0.1L36,21.5l-0.4,0.4l-0.2,0.3l-0.2,0.2
		L35,22.9c-0.2,0.2-0.2,0.3-0.3,0.3l-0.2,0.5l0,0.2l-0.2,0.4l-0.2,0.5V25l0,0.3c0,0.2,0.1,0.3,0.1,0.3l0.1,0.1l0.2,0h0.1l0.2,0
		l0.2-0.1l0.2,0l0.1,0h0.1l0.5-0.1h0.1c0.1,0,0.3-0.1,0.4-0.1l0.1-0.1l0.3-0.2l0.2-0.1l0.5-0.1l0.4-0.2l0.2-0.1l0.9-0.4l0-0.1h0.2
		l0.5-0.2l0,0l0-0.1l0.2-0.1H40l0.1-0.1l0.2,0l0.2-0.1l0.3-0.2l0.2-0.1l0.3-0.2l0.1-0.1l0.3-0.2l0.1-0.1l0.1-0.1l0.5-0.3h0.1
		l0.2-0.1l0.1-0.1l0.1-0.1c0.1,0,0.1,0,0.1,0l0.1-0.1l0.2-0.1l0.1-0.1l0.2-0.1l0.3-0.1l0.1-0.1c0.2-0.1,0.4-0.3,0.7-0.4l0.1-0.1h0.1
		l0.1,0l0.1,0.2l-0.1,0.1l-0.1,0.1l-0.2,0.1l-0.1,0.1l-0.1,0h0v0.1L44,21.5H44L43.2,22L43,22.2l-0.2,0.2l-0.2,0.1l-0.2,0.1
		c-0.5,0.3-0.9,0.6-1.4,0.9l-0.1,0.1l-0.1,0.1l-0.3,0.1l-0.1,0.1l-0.1,0.1L40.2,23.9z M42.4,12.3l-0.2,0.4l-0.1,0.1L42,12.9v0
		L41.7,13L41.5,13l-0.2,0.1l-0.2,0.2l0,0L41,13.3l-0.1,0.2l-0.3,0.1L40.4,14L40.1,14L40,14.2l-0.2,0.2v0l-0.3,0.2l0-0.2l0.1-0.1
		c0,0,0-0.1,0-0.2l0.3-0.4L40,13.5l0.2-0.4l0.1-0.2l0.3-0.3l0.2-0.2l0.1,0l0.3-0.3l0.1-0.1l0.2-0.1l0.2-0.2h0l0.1-0.1h0l0.1-0.1v0.1
		l0.2-0.2l0.3-0.1l0.2,0.2l0.3,0.1L42.4,12l0.1,0.1L42.4,12.3z"/>
	<path class="st0" d="M49.7,21l-0.1,0.2c0,0,0,0.1,0,0.2l-0.2,0.3l-0.2,0.3L49,22l-0.3,0.3l-0.1,0.1l-0.1,0.1l-0.2,0.2l-0.1,0
		c-0.4,0.4-1,0.7-1.5,1.1v0h-0.1L46.5,24v0l-0.1,0h-0.1c0,0,0,0-0.1,0v0.1h-0.1L46,24.3h0l-0.1,0.1l-0.2,0.1l-0.1,0.1l-0.2,0.1
		l-0.1,0l-0.3,0l-0.1,0l-0.2,0h-0.1c-0.4,0.2-0.8,0.3-1.1,0.4l-0.1,0.1l-0.1,0l-0.1,0.1l-0.1,0l-0.2,0h-0.2l-0.5,0l-0.5-0.1v0
		c0,0-0.1,0-0.1,0c-0.2,0-0.3,0-0.4-0.1c-0.1-0.1-0.6-0.3-0.7-0.5v-0.2l-0.1,0l0-0.2l0.2-0.5l0.2-0.4l0.1-0.2l0.3-0.3l0.2-0.1l0-0.1
		l0.4-0.3l0.4-0.4l0.1-0.1l0.1-0.1l0.6-0.4l0.2-0.1l0.1,0l0-0.1l0.2-0.1l0.1-0.1l0,0l0.6-0.5l0.1-0.1l0.1,0l0.2-0.2l0.2-0.2l0.2-0.2
		l0.4-0.1l0.3-0.3l0.2-0.1l0.2-0.1c0.3-0.2,0.5-0.3,0.7-0.5l-0.4,0c-0.2,0-0.3,0-0.5,0l-0.1,0l0,0l-0.1,0h-0.3
		c-0.2,0-0.5,0.1-0.8,0.1h0l-0.6,0L44.1,19l-0.2-0.1l-0.1-0.1l0-0.2l0.2-0.3l0.2-0.1l0.3-0.1l0.3,0l0.2,0.1l0.4,0.1
		c0.4,0,0.8,0,1.2,0.1l0.3-0.1l0.4,0l0.5-0.1l0.1,0l0.4-0.1c0.1,0,0.2-0.1,0.2-0.1l0.2-0.2l0.2-0.1l0.1,0l0.1-0.1l0.2,0l0.2,0
		c0.2,0,0.4-0.1,0.5,0l0.2,0l0.1,0.1c0.1,0,0.2,0.1,0.3,0.2l0.7-0.1l0,0l0.3-0.1l0.4,0l0.4-0.1l0.2,0l0.3,0h0.5l0.2,0l0.3,0h0
		c0.1,0,0.2,0,0.3,0c0.1,0,0.3,0,0.4,0l0.1,0l0,0h0.1l0,0.1H55l0.2-0.1h0.2l0.2,0h0.1l0.2,0l0.2,0.1H56l0.1,0l0.2,0l0.1,0
		c0.3,0.1,0.6,0.1,0.7,0.2l0.1,0.1h0.1l0.1,0.1c0.2,0.1,0.3,0.2,0.4,0.3h0.1l0.1,0.1l0.1,0.1l0.1,0.2l0.1,0.2v0.1l-0.2,0.1L58,19
		l-0.2,0.4l-0.1,0.2v0c0,0,0,0,0,0.1l-0.1,0.2l-0.2,0.1v-0.2l0.1-0.1v-0.1c0-0.1,0.1-0.2,0.2-0.3l0.1-0.1l0.2-0.5c0,0,0-0.1,0-0.1
		l-0.1-0.1l-0.3-0.1l-0.2-0.2L56.8,18c-0.6-0.1-1.3-0.1-1.7-0.1h-0.4l-0.3,0c-0.3,0-0.4,0.1-0.7,0.1c-1.1,0.1-1.9,0.2-2.6,0.3
		l-0.1,0L51,18.4l-0.1,0.1l-0.4,0c-0.4,0.1-0.8,0.1-1.3,0.2L49,18.7h-0.2l-0.5,0l-0.1,0.1c0.3,0.1,0.5,0.2,0.7,0.3h0.1l0.1,0.1
		l0.1,0l0.1,0.1l0.2,0.1l0.3,0.3l0.1,0.2l0.1,0.3l0,0.5C49.8,20.7,49.8,20.9,49.7,21z M49.1,20.8v-0.2l0.1-0.2l0-0.4v0l-0.1-0.3
		l-0.2-0.2l-0.2-0.1l-0.2-0.1l-0.2-0.1l-0.2-0.1L48,19.1l-0.2,0c0,0-0.1,0-0.1,0c-0.3,0.2-0.6,0.5-1.1,0.8L46.5,20l-0.2,0.2
		l-0.9,0.5l-0.3,0.2l-0.2,0.1l-0.5,0.3l0,0l-0.1,0.1l-0.4,0.2l-0.3,0.2L43.3,22l-0.1,0.1l-0.4,0.3l0,0l-0.3,0.3L42.3,23l-0.1,0.2
		c0,0,0,0,0,0c-0.2,0.2-0.3,0.4-0.4,0.6v0.1l0,0.1l-0.1,0.1v0.2l0,0.1l0,0.1c0,0.2,0.1,0.4,0.2,0.5h0.1l0.2,0.1c0,0,0.1,0,0.2,0
		c0.8,0,1,0,1.8-0.3c0.4-0.1,0.7-0.3,1.1-0.4l0-0.1h0.1l0.3-0.2l0.2-0.2l0.4-0.2l0.1,0h0.1l0.8-0.5l0.1-0.1l0,0
		c0.2-0.2,0.4-0.3,0.6-0.5l0.1-0.1l0.1-0.1l0.2-0.1l0.2-0.2l0.1-0.1l0.1,0l0.1-0.1l0.1-0.1l0.1-0.1h0.1C48.8,21.3,49,21.1,49.1,20.8
		z M50.1,18.1c-0.2-0.1-0.5,0-0.8,0.1L50.1,18.1z"/>
	<path class="st0" d="M75.7,32.2L75.7,32.2l-0.1-0.3l-0.2-0.3l-0.1-0.3v-0.4l-0.1-0.2v-0.3l-0.1-0.4l0-0.1l0-0.1v-0.1l0-0.1l0-0.1
		L75,29.5l0-0.2l0-0.1l0-0.2L74.9,29l-0.1-0.5l-0.1-0.2l-0.1-0.2l-0.1-0.2l0-0.1l0,0l0-0.1v-0.2l0.1-0.2h0c0-0.2-0.1-0.4-0.1-0.6
		h-0.1l0-0.1l0.1-0.2c0-0.1-0.1-0.2-0.1-0.3l-0.1,0l0,0l0-0.2l0-0.4l-0.1-0.2v0c-0.1-0.7-0.2-1.3-0.3-2.1v0l0-0.3l0-0.1v-0.1l0-0.1
		l0-0.3l-0.1-0.7v-0.2l-0.1-0.2l0-0.7l-0.1-0.3l0.1-0.7l0-0.2c0-0.3-0.1-0.7-0.1-1.1v-0.5c0-0.1,0-0.3,0-0.4l0-0.3v-0.1l-0.1-0.5
		l0-0.2l-0.1-0.2v-0.1l0.1-0.1l0-0.1l-0.1-0.8v0l0-0.1l0-0.1l0-0.4L73,15l-0.1,0.1l-0.2,0.1l-0.7,0.5L72,15.9l-0.2,0.1L71.7,16l0,0
		l-0.2,0.1h-0.1l-0.3,0.3l-0.5,0.5L70.5,17l-0.3,0.1l-0.1,0.1c-0.1,0.1-0.3,0.2-0.4,0.3l0,0l-0.1,0.2l-0.3,0.2l-0.4,0.3l-0.1,0.1
		l-0.2,0.2l-0.1,0.1l-0.1,0.1l-0.2,0.2l-0.8,0.5c-0.4,0.4-0.9,0.7-1.3,1l-0.9,0.9l-0.2,0.1l-0.3,0.2l-0.3,0.2l-1,0.9v0l-0.3,0.3
		L63,23l-0.2,0.2l-0.3,0.2l-0.4,0.3l-0.2,0.2L62,24l-0.1,0l-0.4,0.2l-0.4,0.3c-0.3,0.2-0.5,0.4-0.8,0.6l-0.5,0.7l-0.2,0l-0.3,0.2
		l-0.1,0l-1,0.9l-0.1,0.1l-0.2,0.1l-0.2,0.2l0,0v0c0,0,0,0-0.1,0l-0.1,0.1l-0.2,0.1v0h0l-0.3,0.2L57.1,28l-0.1,0.1L57,28.1l-0.1,0
		l-0.3,0.2l-0.1,0.1l-0.2,0.1l-0.1,0.1L56,29l-0.2,0.2l-0.1,0.2l-0.2,0.2l-0.1,0.1h-0.1l0,0l-0.2,0.1l-0.3,0l0,0v0l-0.2,0.2L54.5,30
		l-0.2,0.2l-0.1,0c0,0,0,0-0.1,0.1l-0.4,0.3l0,0.1l0,0l-0.1,0v0l-0.1,0.1L53.5,31l0.1-0.1V31l-0.1,0.1l-0.1,0l0-0.1l-0.1,0.1
		l-0.2,0.1l-0.2,0.2l-0.2,0.2l-0.5,0.2L52,32l-0.2,0l-0.1,0l-0.1,0.1v0.1l0,0v0h-0.2l-0.1-0.2l0-0.2l0-0.1c-0.8,0.1-0.8-0.9,0.2-1.4
		l0.2-0.1l0.2-0.1l0.4-0.1l-0.1-0.1l0.2-0.1l0.1-0.1l0-0.1l0.1,0.1h0.1l0.1-0.1l0.3-0.1l0.6-0.1l0.7-0.4l0.4-0.1l0.2-0.2l0.1,0
		l0.2-0.2v-0.3h0.1l0.3-0.1l0.2-0.2l0.1-0.1l0.2-0.1l0.5-0.5l0.2-0.1l0.2-0.2l0.3-0.3l0.3-0.2l0.2-0.1l0.4-0.2l0.3-0.3l0.1-0.1
		l0.1,0l0.6-0.5l0.5-0.3l0.8-0.7l0.3-0.2l0.6-0.6l0.3-0.2l0.5-0.4l0.3-0.3l0.2-0.2l0.2-0.2l0.3-0.3l0.4-0.2l0,0l1.7-1.4l0.1-0.1
		l0.5-0.4h0.1c0,0,0,0,0,0v-0.1l0.2-0.1c0,0,0,0,0,0l0.1-0.2l0.1-0.1l0.2,0l0.7-0.6l0,0l0.2-0.1l0.1-0.2l0.1-0.2l0.1-0.1l0.3-0.1
		l0.1-0.1l0.1-0.1l0.2-0.1l0.1-0.1l0.2-0.1l0,0l0.1,0l0.1-0.1l0.2-0.2l0.2-0.2l0.1,0l0.1-0.2l0.1-0.1h0.2l0.2-0.1h0l0.2-0.1l0.1-0.1
		l0-0.1l0.2-0.1l0.1,0l0.2-0.3l0.2-0.2l0.4-0.2l0.3-0.3l0.2-0.1l0.2-0.1h0l0.7-0.5l0-0.1l0-0.1l0.1,0l0.1,0l0.1-0.1h0l0,0l0.3-0.2
		l0.1,0l0.6-0.4h0c0-0.1,0-0.1,0-0.2l0-0.1l0-0.2c0-0.1,0-0.1,0-0.2l-0.1-0.2l0-0.1l0-0.2v-0.2l0-0.2l0-0.2v-0.1l0-0.3v-0.1l0-0.2
		l0-0.1v-0.3c0-0.2,0-0.4,0-0.5l-0.1,0l0-0.1l0,0l-0.1,0l0-0.2h0v0h0.1v-0.1l0-0.1l0,0v-0.2l0.1-0.2l0-0.1l0.1,0c0-0.2,0-0.4,0-0.5
		V9.3l0-0.2V8.6l-0.1-0.3l-0.1-0.2l0-0.2V7.9l0-0.1v0l0-0.2l0.1-0.1V7.4l-0.1-0.3l0-0.2l0.1-0.2l0.1-0.1l0-0.2V6.5l0,0l-0.1-0.1V6.3
		l0-0.1l0,0V6.1h0v0h0.1l0-0.1V5.9l0,0v0l0.1-0.2l0.1-0.2l0.1-0.1h0L73.5,5l0.2-0.3V4.5l0.1,0.2l0.1,0h0.1L74.2,5l0.1,0.4v0.1
		l0.1,0.1v0.2L74.2,6l-0.1,0.3L74,6.7V7l0.1,0.2l0,0.1l0,0.3l0.1,0.3l0,0.1l0.1,0.2v0.1l0.1,0.1l0,0.1l-0.1,0.2l0,0.2l-0.1,0.5
		l-0.1,0.3v0.1c0,0,0,0.1-0.1,0.1l-0.1,0.1l0,0c0,0,0-0.1,0-0.1V9.5l0,0.1v0.3l0.1,0.3l0.1,0.2l0,0.1l0,0l-0.1,0.1l-0.1,0.1l0,0.1
		l-0.1,0.2h0.1l0,0.1l0.1,0.2l0,0.2v0.1l0,0.1v0.1l0,0.2l-0.1,0.2l0,0.2l0,0.4l0,0.1v0.1l0,0.3l-0.1,0.2v0.1l0,0.1v0.4l0.2-0.1
		l1.1-0.8l0.1-0.2l0.3-0.4l0.6-0.3l0.4-0.5l0.2-0.2l0.3-0.2l0.4-0.2l0.3-0.2l0.3-0.2l0.6-0.2l1.1-0.7l0,0V9.6l0.1,0.1l0.1-0.1v0
		L80,9.5L80,9.3l0.1-0.2h0L80.3,9l0,0l0,0l0,0l0.1-0.1h0.1l0.1,0h0.1l0.1,0l0.2-0.1L81,8.6l0.1-0.1l0.1,0l0.3-0.1l0.2-0.1L82,8.1
		h0.1L82.3,8l0.3-0.3l0.6-0.3l0.2-0.1L84,7l0.2-0.1l0.2-0.1L85,6.4l0.5-0.3l0.4-0.2l0.1-0.1l0.2-0.1l0.2,0l0.4-0.3l0.1,0l0.5-0.1
		l0.5-0.3l0.1-0.1L88.1,5l0.1-0.1l0.3-0.2l0.3,0l0.1-0.1l0.3-0.1c0.2-0.1,0.5-0.2,0.7-0.3L90,4.3l0.1,0l0.2-0.1l0.1,0l0.1-0.1l0,0
		l0.2,0h0.2c0.7-0.2,1.5-0.4,2.3-0.6l0.2-0.1l0.1,0l0.2,0c0.7-0.1,1.4-0.2,2-0.3L95.7,3l0.1,0l0.3,0c0.6,0,1.5,0,2.1,0.2h0l0.4,0.1
		l0.1,0.2l0.1,0L99,3.6l0,0.1L99,3.8L99,4v0.5c0,0,0,0.1,0,0.1c0,0.1,0,0.1-0.1,0.2V5l-0.1,0.1l-0.1-0.2l0-0.3L98.6,4
		c0-0.1-0.1-0.1-0.1-0.2c-0.5-0.8-2-0.6-2.7-0.5l-0.8,0.1l-0.2,0.1l-0.1,0h0c-0.4,0-0.7,0.2-1.1,0.3l-0.1,0.1l-0.1,0l-0.3,0.1
		L92.8,4l-0.2,0.1l-0.2,0l-0.1,0.1l-0.2,0l-0.1,0l-0.1,0l-0.2,0.1l-0.1,0h0c-0.2,0.1-0.5,0.2-0.7,0.3l-0.2,0.1l-0.3,0.1l-0.2,0.1
		l-0.2,0l-0.3,0.1l-0.7,0.3l-0.6,0.2l-0.6,0.3l0,0l-0.1,0L87.5,6l-0.1,0h0L87,6.2l-0.1,0.1l-0.2,0l-0.1,0.1h-0.1l-0.3,0.1L85.3,7
		l-0.2,0.2l-0.2,0.1l-0.3,0l-0.4,0.2c-0.7,0.4-1.3,0.7-1.9,1.1l0,0l-0.2,0.2L82,8.9L81.8,9l-0.5,0.2l-0.2,0.2l-0.3,0.3l-0.1,0v0
		l0,0.1l-0.1,0l0,0.1l-0.1,0.1l-0.3,0.2L80,10.2h0l0,0l-0.3,0.2l-0.4,0.1l-0.6,0.4l-0.2,0.2l-0.1,0l-0.1,0.2L78,11.5l-0.3,0.2
		L77.2,12L77,12.2l-0.2,0.2l-0.3,0.2l-0.1,0.1L76,12.8c-0.1,0.1-0.2,0.1-0.2,0.1v0l-0.4,0.4l-0.3,0.2l-0.1,0.2h-0.1L74.4,14
		l-0.3,0.2l0,0.1l-0.3,0.1l0,0l0,0.3l0,0.2v0.1l0,0.3l0,0.1l0.1,0l0,0.1l0,0l0,0.5V16l0,0.1l0,0.1l0,0.1l-0.1,0.1l0,0.1l0.1,0.2v0.1
		l0,0.2l0,0.2v0.7l0.1,0.1l0,0L74,18.1c0,0.2,0,0.3,0,0.4l0.2,0.4L74.2,19v0.2l-0.1,0.2l0.1,0.8l0.1,0.5l0,0.4c0,0.1,0,0.2,0,0.2
		v0.1l0.1,0.3l0,0.2l0,0.2l0.1,0.3l-0.1,0v0l0.1,0.2l0.1,0.3v0.1l0,0.1l0.1,0.9v0l0,0l0,0.3l0,0h0l0,0.4l0,0.1c0,0,0,0.2,0,0.3l0,0
		v0.1c0,0.1,0,0.2,0,0.4l0.2,0.4l0,0.2l0.1,0.3L75,26.8v0.2l0.1,0.3l0,0.2l0.1,0.4l0,0.1c0.1,0.2,0.1,0.4,0.1,0.6l0.1,0.1v0.1
		c0,0.1,0,0.2,0,0.2l0.1,0.2l0.2,0.7l0.1,0.2l0.1,0.9l0,0.1l0.1,0.3l0.1,0.1l0,0.2l0.1,0.1l0.2,0.5l0.1,0.1l0.1,0.3l0.2,0.2l0.2,0.7
		l0.2,0.3l0.2,0.2l0.2,0.3l0.1,0.2l-0.1,0.2l0.1,0.1l0.1,0.2c0.1,0.1,0.2,0.2,0.4,0.3l0.2,0.1h0.1l0.1,0l0.4-0.1h0.1l0.3-0.1
		l0.1-0.1l0.2-0.2h0.1l0.1,0c0.4-0.2,0.9-0.5,1.3-0.7l0.1-0.1l0.2-0.1L81,34.1l-0.1,0.1c0,0,0,0.1-0.1,0.1l-0.1,0.1l-0.1,0.1
		l-0.4,0.3l-0.1,0l-0.2,0.1l-0.1,0.1l-0.1,0.1h-0.2l-0.1,0h-0.1l-0.4,0.2l-0.4,0.3l-0.3,0.1h-0.1l0,0c-0.1,0-0.5-0.1-0.7-0.2h-0.1
		l-0.1-0.1l-0.1,0l-0.1-0.1v0l0,0H77l-0.1,0l0,0h0V35l0,0l-0.1-0.1l-0.1-0.1l-0.1-0.3l-0.3-0.3l-0.1-0.2V34l-0.1-0.2L76,33.7
		L76,33.5l0,0.1l-0.1-0.1l0-0.1v0l0,0l0.1,0.1l0-0.1l0-0.1l0-0.1l-0.1,0v0l0-0.1l-0.2-0.4L75.7,32.2z"/>
	<path class="st0" d="M91.8,32c-0.1-0.2-0.1-0.4-0.2-0.6l-0.2-0.2l-0.1-0.2l-0.1-0.1v-0.7c-0.2-0.6-0.2-0.6-0.2-0.7L91,29.5
		l-0.1-0.3l-0.1-0.3l-0.2-0.5c-0.1-0.2-0.1-0.3-0.1-0.3l-0.4-0.8l0-0.2L90,27L90,26.8l-0.1-0.1v-0.1l0-0.4l0-0.1l-0.5-0.8v-0.2l0,0
		l-0.5-0.8v-0.1L88.6,24l-0.1,0l0,0l-0.2-0.6l-0.1-0.2l-0.1-0.2l-0.1-0.2h0L88,22.7L88,22.5l-0.2-0.4v-0.1l-0.2-0.4l-0.2-0.4
		l-0.5-0.6l-0.1-0.2l-0.1-0.2l0-0.1L86.2,20c-0.2,0.1-0.4,0.2-0.5,0.3l-0.1,0.1l-0.1,0l-0.3,0.2h-0.1l-0.1,0.1L85,20.8l-0.1,0.1
		h-0.1l-0.1,0.1l0,0l-1.2,0.6c-0.1,0.1-0.2,0.1-0.2,0.1v0l0,0h-0.1L82.6,22l-0.1,0l-0.3,0.2l-0.2,0.1l-0.6,0.3l-0.1,0.1l-0.9,0.5
		c-0.1,0-0.1,0.1-0.2,0.1l-0.1,0.1l-0.2,0.1l-0.4,0.2l-1,0.7l0,0c0,0,0,0-0.1,0l-0.1,0.1l-0.2,0.1c-0.5,0.3-0.9,0.6-1.3,0.9L77,25.6
		l-0.2,0.2h0l-0.5,0.4l-0.3,0.4L76,26.7l-0.2,0.3c0,0,0,0-0.1,0.1l0,0l-0.2,0.1l-0.1-0.2l0.1-0.1v0c0,0,0.1,0,0.1-0.1l0.1-0.3
		c0,0,0,0,0,0l0.3-0.5l0.1-0.2l0.1,0h0.2l0.1-0.1l0.2-0.1l0.1-0.1l0.2-0.2l0.2-0.2l0.2-0.2l0.1-0.1l0.1-0.2l0.1-0.1l0.1-0.1l0.2-0.2
		l0.1-0.1l0.2-0.1l0.2,0l0.2-0.1l0.2-0.1l0,0l0.2-0.1l0-0.1l0.1,0.1c0.1-0.1,0.2-0.1,0.2-0.2v0l0.1-0.1l0.1-0.1l0.5-0.3l0.1-0.2
		l0.1,0l0.2-0.1l0.3-0.2l0-0.1l0.1-0.1l0.6-0.5l0.2-0.1l0.2-0.2l0.3-0.2l0.3-0.2l0.2-0.1l0.4-0.1l0.1-0.1l0.1-0.1l0.2-0.2l0.1,0
		l1.4-0.8l0.1-0.1l0.3-0.2l0.5-0.2l0.4-0.4l0.1-0.1l-0.2,0l-0.2-0.2l0-0.2c-0.1,0.1-0.2,0.1-0.2,0c-0.2-0.2-0.4-0.5-0.5-0.7
		l-0.2-0.1l-0.2,0l-0.1,0l0-0.1l-0.1,0l-0.1-0.2l-0.2-0.3l-0.2-0.2l0.1-0.2l0.2-0.1l0.1,0c0-0.1,0.1-0.2,0.3-0.2l0.1,0.1h0.1v0
		l0.2,0.1l0,0h0.1l0.1,0l0.2,0.1l0.1,0.1v0l0.1,0l0,0.1l0.1,0.1l0,0l0,0l0,0l0.1,0.1v0l0.1,0.1l0.1,0h0l0,0.1l0.1,0.1v0.1l0,0.1
		l0.1,0.1v0.1l0,0v0l0.3,0.4l0.1,0l0.1,0.1l0,0l0,0l0.1,0.1l0.2,0.1l0,0l0.3-0.1L87,19l0.8-0.3h0.1l0.2,0c0,0,0.1,0,0.1-0.1l0.5-0.3
		l0.2-0.1l1.3-0.6l0,0l0.2-0.1l0.1,0l0.2,0h0l0.1-0.1h0.1c0.3-0.1,0.6-0.3,0.9-0.4l0.1-0.1l0.2-0.2l0.1,0l0.1-0.2l0.1,0l0.2,0l0.2,0
		h0.5c0.2,0,0.4,0,0.6,0l0.1,0h0v0.1c0.1,0,0.1,0.1,0.1,0.2c0,0,0,0.1,0,0.2H94v0l0,0.1l0,0.1l0,0.1v0L94,17.3l0,0l0,0l0,0l-0.1,0.1
		l0,0l-0.1,0l0,0l-0.1,0.2l-0.2,0.1l-0.2,0.1l0,0L93.3,18v0l-0.1,0l-0.1,0L93,18l-0.1-0.1l0.1-0.2l0.1-0.3v-0.1h0l-0.2-0.1l-0.1-0.1
		l-1.3,0.3l-0.1,0.1h-0.1l-0.3,0.1l-0.8,0.4l0,0L90,18.2h-0.1l0,0.1l-0.2,0l-0.1,0.1h-0.1l-0.1,0l-0.1,0.1l-0.2,0.1l-0.5,0.3l-0.1,0
		L88.3,19L88,19.2l-0.4,0.2l-0.3,0.2l-0.2,0.1L87,19.7l-0.2,0l0,0c0.2,0.2,0.3,0.5,0.5,0.7l0.1,0.1l0.1,0.1l0.1,0.1l0.1,0.1l0.2,0.1
		l0.1,0l0,0.2l0.1,0.2l0,0.2c0.2,0.3,0.3,0.5,0.4,0.7l0.1,0v0.1l0.1,0.2l0,0.1l0.1,0.1l0.1,0.2l0.1,0.1l0.1,0.2l0.1,0.1v0.3
		c0.1,0.2,0.2,0.4,0.3,0.5h0l0.2,0.3l0.1,0.4v0l0.3,0.3l0,0.2l0.1,0.3l0.1,0.3l0.1,0.2c0.1,0.3,0.3,0.6,0.4,0.9l0.1,0.1l0.1,0.2
		l0.1,0.2l0,0.2l0.2,0.3l0.1,0.1l0.2,0.3l0.1,0.2l0.2,0.7l0,0.1l0.3,1l0,0l0.1,0l0,0.1c0.2,0.6,0.4,1.2,0.5,1.8l0.1,0.2l0.1,0.2
		l0,0.1l0,0l0.1,0.2l0.1,0.3l0,0.2l0.1,0.2v0.2l0.2,0.9l0,0.1l0.1,0l-0.1,0.1l0,0c0,0,0,0.1,0,0.1l0,0l0.2,0.1l0,0.1L93,35.1
		l0.1,0.2l0,0.5c0,0.1,0,0.1,0,0.1c0,0,0,0.1,0,0.1v0.2L93,36.4v-0.2l0-0.3l-0.1-0.4l0-0.2l0,0l-0.3-0.8v-0.3L92.5,34l-0.1-0.1
		l-0.1-0.2l0-0.3l-0.1-0.4l-0.1-0.5l0-0.1l0-0.1l-0.2-0.3l0-0.1L91.8,32L91.8,32z"/>
</g>
</svg>
